<?xml version="1.0" encoding="UTF-8"?>
<svg xmlns="http://www.w3.org/2000/svg" xmlns:xlink="http://www.w3.org/1999/xlink" width="190pt" height="190pt" viewBox="0 0 190 190" version="1.1">
<g id="surface1">
<path style="fill-rule:nonzero;fill:rgb(100%,100%,100%);fill-opacity:1;stroke-width:21.127;stroke-linecap:butt;stroke-linejoin:miter;stroke:rgb(0%,32.54902%,62.745098%);stroke-opacity:1;stroke-miterlimit:4;" d="M 706.968607 420.944885 C 706.968607 647.012366 523.705266 830.275707 297.637785 830.275707 C 71.570304 830.275707 -111.693037 647.012366 -111.693037 420.944885 C -111.693037 194.877404 71.570304 11.614063 297.637785 11.614063 C 523.705266 11.614063 706.968607 194.877404 706.968607 420.944885 Z M 706.968607 420.944885 " transform="matrix(0.225683,0,0,0.225683,27.828286,0)"/>
<path style=" stroke:none;fill-rule:evenodd;fill:rgb(0%,32.54902%,62.745098%);fill-opacity:1;" d="M 9.574219 96.089844 C 8.976562 48.921875 46.746094 10.1875 93.914062 9.589844 C 141.082031 8.992188 179.820312 46.761719 180.417969 93.929688 C 181.011719 141.097656 143.246094 179.832031 96.078125 180.429688 C 48.910156 181.027344 10.171875 143.257812 9.574219 96.089844 Z M 93.902344 8.523438 C 46.144531 9.128906 7.90625 48.347656 8.507812 96.105469 C 9.113281 143.863281 48.332031 182.097656 96.089844 181.496094 C 143.847656 180.890625 182.085938 141.671875 181.480469 93.914062 C 180.878906 46.160156 141.65625 7.917969 93.902344 8.523438 Z M 93.902344 8.523438 "/>
<path style=" stroke:none;fill-rule:evenodd;fill:rgb(0%,32.54902%,62.745098%);fill-opacity:1;" d="M 91.863281 38.230469 C 81.375 38.207031 69.191406 42.363281 61 49.140625 C 60.972656 49.160156 60.972656 49.234375 61.03125 49.261719 C 65.714844 51.121094 68.925781 53.582031 73.929688 56.386719 C 74.109375 56.484375 74.175781 56.441406 74.210938 56.28125 C 76.632812 43.980469 91.648438 47.394531 93.050781 38.425781 C 92.988281 38.363281 93 38.253906 92.871094 38.246094 C 92.539062 38.238281 92.199219 38.234375 91.863281 38.230469 Z M 98.109375 38.246094 C 98.003906 38.246094 97.96875 38.289062 97.976562 38.453125 C 97.34375 40.035156 99.195312 41.679688 100.273438 42.746094 C 100.378906 42.839844 100.550781 42.953125 100.679688 43.011719 C 107.382812 45.738281 114.800781 47.753906 116.425781 55.464844 C 116.457031 55.582031 116.480469 55.660156 116.605469 55.554688 C 120.175781 53.183594 123.722656 50.78125 127.335938 48.5 C 127.519531 48.425781 127.453125 48.339844 127.335938 48.265625 C 119.167969 42.457031 108.957031 38.675781 98.109375 38.246094 Z M 56.308594 53.046875 C 49.773438 58.84375 44.164062 66.421875 41.246094 74.941406 C 41.210938 75.023438 41.261719 75.0625 41.378906 75.074219 C 47.773438 75.652344 49.863281 67.308594 54.765625 64.210938 C 54.832031 64.171875 54.890625 64.136719 54.886719 64.058594 C 54.539062 60.257812 54.371094 57.054688 56.308594 53.046875 Z M 135.207031 54.871094 C 135.566406 57.820312 135.292969 60.617188 134.507812 63.34375 C 134.476562 63.472656 134.480469 63.574219 134.625 63.671875 C 139.351562 66.199219 141.914062 73.582031 147.375 73.871094 C 147.441406 73.898438 147.546875 73.90625 147.507812 73.8125 C 145.613281 67.226562 140.160156 59.429688 135.207031 54.871094 Z M 149.261719 78.132812 C 142.558594 84.851562 153.4375 96.113281 138.679688 102.398438 C 137.375 102.78125 136.125 103.238281 134.949219 103.242188 C 131.667969 103.257812 126.996094 100.757812 127.027344 105.738281 C 127.027344 105.828125 127.109375 105.890625 127.214844 105.933594 C 131.777344 107.886719 137.9375 112.117188 138.035156 118.640625 C 138.257812 126.414062 130.074219 131.648438 131.375 139.035156 C 148.863281 123.910156 156.054688 101.582031 149.261719 78.132812 Z M 39.9375 79.242188 C 39.878906 79.257812 39.839844 79.320312 39.789062 79.4375 C 33.164062 97.535156 39.671875 125.667969 59.988281 140.53125 C 59.992188 140.148438 60.214844 139.347656 60.449219 138.8125 C 60.535156 138.601562 60.519531 138.335938 60.449219 138.085938 C 59.703125 134.8125 57.75 131.511719 55.894531 128.300781 C 49.488281 117.664062 53.042969 110.371094 63.390625 105.636719 C 63.523438 105.59375 63.550781 105.519531 63.480469 105.382812 C 63.320312 105.03125 63.160156 104.683594 63.003906 104.328125 C 62.957031 104.230469 63.003906 104.042969 62.769531 104.074219 C 60.449219 104.363281 57.835938 104.570312 55.476562 104.464844 C 51.925781 103.671875 48.53125 102.257812 45.976562 98.496094 C 41.402344 92.109375 47.667969 83.523438 40.113281 79.289062 C 40.050781 79.253906 39.992188 79.226562 39.9375 79.242188 Z M 135.710938 105.402344 C 135.878906 105.402344 136.058594 105.425781 136.226562 105.472656 C 138.519531 105.890625 141.988281 107.238281 144.050781 109.789062 C 144.183594 109.953125 144.121094 110.09375 143.917969 110.074219 C 140.605469 109.976562 136.886719 109.609375 134.3125 107.582031 C 133.945312 107.292969 133.609375 107.003906 133.867188 106.316406 C 134.058594 105.882812 134.664062 105.546875 135.171875 105.457031 C 135.355469 105.425781 135.53125 105.394531 135.710938 105.402344 Z M 53.816406 106.75 C 54 106.746094 54.179688 106.75 54.367188 106.765625 C 54.519531 106.78125 54.675781 106.78125 54.78125 106.882812 C 55.414062 107.640625 55.289062 108.703125 54.101562 109.523438 C 51.589844 111.132812 48.675781 111.222656 45.996094 111.339844 C 45.890625 111.34375 45.707031 111.226562 45.890625 111.054688 C 48.335938 108.816406 51.039062 106.777344 53.816406 106.75 Z M 99.226562 137.253906 C 99.191406 137.25 99.152344 137.257812 99.121094 137.28125 C 97.0625 138.261719 93.828125 138.734375 92.011719 137.714844 C 91.792969 137.605469 91.664062 137.6875 91.578125 137.8125 C 88.308594 143.347656 80.542969 143.214844 75.03125 141.808594 C 70.933594 140.886719 66.925781 139.71875 63.613281 142.996094 C 80.851562 155.425781 107.425781 155.816406 127.367188 142.136719 C 123.605469 140.359375 120.191406 141.636719 116.054688 142.597656 C 111.371094 143.683594 104.796875 144.667969 99.492188 137.375 C 99.402344 137.347656 99.320312 137.257812 99.226562 137.253906 Z M 95.78125 138.5 C 95.828125 138.503906 95.878906 138.507812 95.945312 138.511719 C 96.542969 138.582031 96.882812 138.886719 97.25 139.300781 C 97.425781 139.53125 97.488281 139.804688 97.457031 140.089844 C 97.359375 142.644531 96.921875 145.230469 96.0625 147.464844 C 96.042969 147.570312 95.964844 147.59375 95.929688 147.464844 C 94.929688 144.316406 93.226562 141.128906 95.378906 138.652344 C 95.515625 138.53125 95.628906 138.492188 95.78125 138.5 Z M 95.78125 138.5 "/>
<path style=" stroke:none;fill-rule:evenodd;fill:rgb(0%,32.54902%,62.745098%);fill-opacity:1;" d="M 101.300781 14.421875 C 101.8125 15.097656 102.324219 15.851562 102.144531 16.664062 C 101.488281 20.375 100.777344 24.082031 100.023438 27.78125 C 99.890625 28.609375 99.289062 28.960938 98.6875 29.515625 C 102.75 30.253906 110.347656 31.691406 114.425781 32.457031 C 114.316406 30.847656 115.546875 29.90625 116.039062 28.449219 C 114.6875 29.398438 112.957031 29.746094 111.351562 29.398438 C 109.679688 29.082031 105.539062 28.261719 103.871094 27.914062 C 104.140625 26.621094 104.3125 25.304688 104.613281 24.011719 C 106.238281 24.296875 108.851562 24.914062 110.472656 25.109375 C 111.855469 25.4375 112.898438 23.519531 113.652344 22.617188 C 113.121094 22.734375 112.128906 22.796875 111.589844 22.675781 C 109.890625 22.34375 106.832031 21.699219 105.128906 21.355469 C 105.28125 20.121094 105.542969 18.90625 105.800781 17.703125 C 108.714844 18.46875 114.8125 18.753906 116.976562 21.207031 C 117.046875 19.851562 116.28125 18.171875 117.050781 17.273438 C 113.023438 16.488281 105.328125 15.171875 101.300781 14.421875 Z M 99.359375 14.480469 C 95.476562 14.5 88.039062 14.90625 84.160156 14.957031 C 84.988281 16.324219 83.753906 17.523438 83.726562 18.890625 C 85.042969 17.695312 88.324219 17.339844 90.035156 17.390625 C 90.027344 21.136719 90.414062 24.894531 90.464844 28.628906 C 90.488281 29.335938 89.9375 29.785156 89.488281 30.066406 C 91.175781 30.050781 93.84375 29.84375 95.425781 29.816406 C 94.644531 29.097656 94.25 29.039062 94.238281 28.035156 C 93.960938 24.589844 93.824219 20.570312 93.730469 17.136719 C 95.476562 17.011719 98.6875 17.324219 100.113281 18.191406 C 100.109375 16.683594 98.648438 15.183594 99.359375 14.480469 Z M 82.378906 15.492188 C 79.898438 16.03125 74.375 16.421875 72.234375 18.042969 C 69.679688 19.816406 69.09375 23.753906 72.402344 25.480469 C 74.488281 26.332031 78.445312 25.40625 80.503906 25.570312 C 81.921875 25.628906 82.519531 27.59375 81.589844 28.554688 C 79.574219 30.34375 74.105469 30.34375 71.71875 29.621094 C 72.304688 30.992188 72.957031 32.171875 73.578125 33.523438 C 74.390625 33.015625 75.832031 32.890625 76.75 32.722656 C 78.707031 32.441406 83.339844 31.183594 84.648438 29.605469 C 86.210938 27.773438 86.285156 25.113281 84.765625 23.433594 C 83.398438 21.933594 79.160156 22.199219 77.359375 22.320312 C 76.335938 22.320312 75.484375 22.679688 74.511719 22.199219 C 73.679688 21.628906 73.726562 20.203125 74.65625 19.722656 C 76.445312 18.773438 80.496094 18.628906 82.363281 19.394531 C 82.253906 18.085938 82.421875 16.796875 82.378906 15.492188 Z M 122.332031 18.832031 C 122.667969 19.65625 122.859375 20.4375 122.464844 21.21875 C 120.996094 24.390625 119.324219 27.539062 117.765625 30.734375 C 117.328125 31.667969 116.769531 32.257812 115.730469 32.648438 C 117.113281 33.355469 119.484375 34.539062 120.878906 35.246094 C 120.296875 33.113281 121.742188 31.195312 122.570312 29.472656 C 123.367188 29.910156 125.507812 30.90625 126.03125 31.773438 C 126.730469 32.960938 126.902344 34.179688 127.054688 35.410156 C 127.121094 36.523438 127.210938 37.363281 126.0625 37.757812 C 127.675781 38.414062 130.214844 39.765625 131.714844 40.488281 C 130.523438 38.03125 131.257812 34.691406 129.667969 32.28125 C 130.703125 32.324219 132.441406 32.5 133.542969 31.820312 C 135.53125 30.652344 136.019531 28.804688 135.339844 26.371094 C 134.964844 25.089844 133.707031 24.359375 132.636719 23.847656 C 130.082031 22.585938 124.890625 20.078125 122.332031 18.832031 Z M 64.132812 20.464844 C 60.570312 22.460938 53.726562 25.882812 50.210938 27.945312 C 51.128906 28.183594 51.765625 28.527344 52.199219 29.324219 C 53.957031 32.484375 55.710938 35.636719 57.453125 38.792969 C 57.90625 39.578125 57.765625 40.519531 57.410156 41.390625 C 61.066406 39.363281 67.90625 35.808594 71.570312 33.792969 C 70.425781 33.144531 71.152344 30.976562 70.691406 29.546875 C 70.332031 30.792969 69.042969 31.925781 67.996094 32.695312 C 66.292969 33.835938 62.300781 35.871094 60.527344 36.882812 C 59.882812 35.738281 59.226562 34.566406 58.613281 33.390625 C 59.996094 32.535156 63.199219 31.117188 64.550781 30.214844 C 65.34375 29.222656 64.878906 27.789062 65.054688 26.625 C 64.707031 27.042969 64.253906 27.421875 63.761719 27.675781 C 62.277344 28.503906 59.019531 30.308594 57.511719 31.121094 C 56.941406 30.039062 56.257812 29.011719 55.761719 27.886719 C 58.515625 26.636719 63.449219 23.296875 66.582031 23.476562 C 65.800781 22.335938 64.539062 21.816406 64.132812 20.464844 Z M 125.554688 23.34375 C 126.910156 24.023438 128.90625 24.910156 130.140625 25.582031 C 133.417969 27.285156 131.085938 30.84375 128.71875 29.503906 C 127.363281 29.050781 124.992188 27.714844 123.671875 27.171875 C 124.242188 25.851562 124.96875 24.664062 125.554688 23.34375 Z M 46.992188 30.335938 C 46.613281 30.875 46.121094 31.371094 45.535156 31.6875 C 43.578125 32.597656 40.070312 35.761719 39.226562 37.757812 C 38.054688 40.039062 38.066406 42.140625 39.449219 44.808594 C 41.027344 47.949219 43.261719 49.410156 46.679688 49.410156 C 50.074219 49.199219 53.132812 46.222656 54.53125 44.390625 C 55.300781 43.503906 56.046875 42.527344 57.175781 42.03125 C 56.226562 40.980469 55.230469 39.980469 54.261719 38.945312 C 53.917969 40.207031 53.308594 41.289062 52.484375 42.34375 C 51.261719 43.726562 49.367188 45.90625 47.214844 45.800781 C 45.058594 45.695312 44.375 44.667969 43.414062 43.621094 C 42.453125 42.570312 41.792969 41.34375 41.957031 39.460938 C 42.125 37.582031 45.855469 34.105469 48.550781 34 C 47.933594 32.828125 47.609375 31.519531 46.992188 30.335938 Z M 33.882812 42.996094 C 32.902344 44.261719 31.15625 46.46875 30.113281 47.6875 C 31.082031 47.546875 31.960938 47.628906 32.695312 48.207031 C 35.523438 50.40625 38.347656 52.628906 41.15625 54.84375 C 41.878906 55.390625 42.207031 56.207031 42.300781 57.140625 C 43.339844 55.902344 45.015625 53.730469 46.027344 52.523438 C 45.148438 52.636719 44.296875 52.6875 43.621094 52.140625 C 40.75 49.925781 37.925781 47.675781 35.070312 45.445312 C 34.289062 44.851562 33.855469 44.046875 33.882812 42.996094 Z M 27.175781 51.515625 C 25.382812 55.199219 21.675781 62.039062 19.917969 65.71875 C 20.894531 65.332031 21.628906 65.402344 22.515625 65.851562 C 25.699219 67.449219 28.902344 68.996094 32.085938 70.574219 C 32.871094 70.96875 33.554688 71.75 33.867188 72.5625 C 35.644531 68.820312 38.921875 62.199219 40.964844 58.488281 C 40.542969 58.488281 40.121094 58.136719 39.820312 57.839844 C 38.980469 57.042969 38.554688 56.128906 37.699219 55.347656 C 37.9375 56.832031 37.722656 58.609375 37.074219 60.050781 C 36.324219 61.660156 34.324219 65.554688 33.574219 67.164062 C 32.324219 66.742188 31.359375 66.023438 30.160156 65.480469 C 30.761719 64.042969 32.539062 60.777344 33.15625 59.355469 C 33.164062 58.519531 32.171875 57.109375 31.464844 56.101562 C 31.433594 56.640625 31.199219 57.191406 30.945312 57.691406 C 30.175781 59.253906 28.445312 62.71875 27.664062 64.265625 C 26.566406 63.710938 25.140625 63.171875 24.042969 62.632812 C 24.808594 61.070312 26.75 57.160156 27.546875 55.613281 C 28.164062 54.394531 29.164062 53.378906 30.394531 52.761719 C 29.117188 52.246094 28.269531 52.40625 27.175781 51.515625 Z M 29.476562 71.984375 C 29.988281 72.8125 30.097656 74.214844 30.128906 75.203125 C 30.261719 77.074219 29.167969 80.617188 28.882812 82.433594 C 25.4375 81.761719 21.976562 80.929688 18.550781 80.179688 C 17.605469 79.996094 17.222656 79.238281 16.664062 78.425781 C 16.304688 79.976562 15.691406 82.90625 15.359375 84.46875 C 16.050781 83.957031 16.566406 83.5625 17.378906 83.742188 C 21.046875 84.511719 24.695312 85.316406 28.347656 86.144531 C 29.1875 86.324219 30.035156 86.96875 30.46875 87.761719 C 31.25 84.214844 32.714844 77.730469 33.484375 74.167969 C 33.109375 74.199219 32.714844 74.261719 32.386719 74.050781 C 31.316406 73.460938 30.558594 72.542969 29.476562 71.984375 Z M 29.476562 71.984375 "/>
<path style=" stroke:none;fill-rule:evenodd;fill:rgb(0%,32.54902%,62.745098%);fill-opacity:1;" d="M 29.519531 102.386719 C 29.003906 103.125 28.261719 103.734375 27.378906 103.898438 C 24.023438 104.851562 20.445312 105.578125 16.617188 106.496094 C 15.851562 106.773438 15.386719 106.449219 14.660156 105.890625 C 15 107.441406 15.523438 109.976562 15.890625 111.527344 C 17.253906 109.617188 19.792969 109.691406 21.800781 109.019531 C 22.277344 110.628906 22.835938 114.003906 23.371094 115.578125 C 24.214844 116.453125 25.613281 116.578125 26.710938 116.960938 C 26.425781 116.535156 25.890625 115.621094 25.808594 115.105469 C 25.417969 113.402344 24.683594 110.15625 24.292969 108.46875 C 25.578125 108.183594 26.835938 107.804688 28.136719 107.625 C 28.828125 110.316406 30.441406 115.328125 29.191406 117.898438 C 30.503906 117.480469 31.582031 116.035156 32.753906 116.339844 C 31.980469 112.722656 30.230469 106.03125 29.519531 102.386719 Z M 29.695312 118.847656 C 29.265625 118.832031 28.835938 118.871094 28.40625 118.917969 C 25.5 119.542969 22.796875 120.976562 21.5625 124.011719 C 19.933594 128.246094 23.152344 134.753906 27.46875 136.347656 C 30.246094 137.339844 32.992188 136.59375 35.054688 135.054688 C 36.96875 133.742188 38.269531 131.550781 38.214844 128.613281 C 38.097656 125.300781 36.242188 122.011719 33.539062 120.140625 C 32.253906 119.238281 30.980469 118.878906 29.695312 118.847656 Z M 29.578125 122.542969 C 31.179688 122.535156 32.808594 122.941406 33.910156 124.589844 C 35.285156 126.296875 35.699219 128.691406 34.726562 130.128906 C 33.347656 131.941406 31.121094 133.027344 28.777344 132.933594 C 26.226562 132.839844 23.644531 129.578125 24.398438 126.449219 C 25.113281 123.898438 28.007812 122.671875 29.578125 122.542969 Z M 39.625 134.878906 C 39 134.898438 38.390625 135.019531 37.785156 135.25 C 34.886719 136.320312 32.757812 138.191406 31.90625 141.394531 C 30.714844 145.78125 35.511719 151.535156 40.042969 152.347656 C 42.949219 152.839844 45.523438 151.789062 47.285156 149.910156 C 48.941406 148.285156 49.972656 145.855469 49.40625 142.96875 C 48.710938 139.726562 46.089844 136.945312 43.101562 135.578125 C 41.78125 135.085938 40.671875 134.839844 39.625 134.878906 Z M 41.066406 138.425781 C 42.335938 138.429688 43.488281 138.9375 44.347656 139.835938 C 45.933594 141.304688 46.683594 143.105469 45.949219 145.015625 C 44.941406 147.257812 43.066406 148.707031 40.738281 149.023438 C 38.214844 149.375 34.949219 146.03125 35.292969 143.277344 C 35.703125 140.75 37.351562 139.71875 38.707031 139.003906 C 39.507812 138.613281 40.304688 138.421875 41.066406 138.425781 Z M 52.347656 144.972656 C 52.324219 146.417969 50.84375 145.988281 49.671875 147.808594 C 51.429688 147.632812 54.375 149.199219 55.75 150.226562 C 53.707031 153.328125 51.582031 156.359375 49.511719 159.425781 C 49.128906 160.070312 48.453125 160.144531 47.746094 160.199219 C 49.039062 161.09375 51.382812 162.660156 52.675781 163.554688 C 52.417969 162.523438 52.511719 161.667969 53.074219 160.824219 C 54.902344 158.121094 56.757812 155.421875 58.578125 152.707031 C 58.683594 152.59375 58.769531 152.339844 58.96875 152.40625 C 60.464844 153.21875 62.800781 155.25 63.332031 156.890625 C 63.957031 155.683594 63.839844 153.753906 64.992188 153.285156 C 61.8125 151.09375 55.539062 147.113281 52.347656 144.972656 Z M 65.78125 153.949219 C 66.246094 154.796875 66.125 155.765625 65.855469 156.652344 C 64.816406 160.128906 63.496094 163.253906 62.453125 166.71875 C 62.222656 167.558594 61.695312 168.058594 60.632812 168.304688 C 63.929688 169.351562 67.757812 170.746094 71.242188 171.808594 C 74.855469 172.980469 78.097656 172.109375 78.488281 168.320312 C 78.714844 166.144531 76.398438 165.136719 75.488281 164.652344 C 77.878906 164.945312 79.484375 163.671875 79.613281 161.429688 C 79.816406 159.835938 78.363281 158.089844 75.074219 157.023438 C 72.710938 156.253906 68.160156 154.617188 65.78125 153.949219 Z M 115.746094 156.679688 C 114.214844 157.074219 111.65625 158.144531 110.152344 158.65625 C 110.988281 159.019531 111.570312 159.265625 111.855469 160.109375 C 112.929688 163.375 114.226562 166.417969 115.339844 169.671875 C 115.644531 170.699219 116.019531 171.855469 115.460938 172.863281 C 118.925781 171.796875 124.941406 169.625 128.375 168.484375 C 128.179688 168.199219 127.882812 167.964844 127.902344 167.605469 C 127.816406 166.378906 128.125 165.386719 128.019531 164.148438 C 127.226562 165.800781 125.480469 166.644531 123.699219 167.339844 C 122.699219 167.660156 119.882812 168.917969 118.890625 169.015625 C 117.792969 165.714844 116.484375 162.238281 115.375 158.9375 C 115.070312 158.082031 115.292969 157.484375 115.746094 156.679688 Z M 69.050781 157.761719 C 70.316406 158.210938 73.929688 159.035156 75.164062 159.550781 C 76.878906 160.261719 75.765625 163.339844 73.972656 162.945312 C 72.714844 162.742188 69.1875 161.753906 68.007812 161.3125 C 68.339844 160.128906 68.683594 158.9375 69.050781 157.761719 Z M 85.863281 159.550781 C 85.972656 159.777344 85.90625 160.335938 85.714844 160.585938 L 79.261719 171.511719 C 78.6875 172.445312 78.144531 172.871094 77.34375 173.488281 C 78.816406 173.714844 81.359375 174.445312 82.839844 174.730469 C 82.363281 173.695312 82.40625 172.414062 83.175781 171.425781 C 85.453125 171.625 89.714844 171.933594 91.980469 172.210938 C 92.441406 173.285156 93.03125 174.578125 91.980469 175.5625 C 93.480469 175.550781 96.097656 175.496094 97.5625 175.59375 C 96.902344 174.8125 96.261719 174.023438 95.988281 173.011719 C 95.300781 170.988281 92.75 163.476562 91.949219 161.152344 C 91.8125 160.730469 91.996094 160.207031 92.011719 160.15625 Z M 102.917969 159.632812 C 101.273438 159.90625 98.46875 160.230469 96.894531 160.425781 C 97.644531 160.949219 98.199219 161.273438 98.304688 162.160156 C 98.691406 165.570312 99.382812 168.839844 99.820312 172.253906 C 99.910156 173.320312 99.925781 174.691406 99.179688 175.5625 C 102.789062 175.21875 109.433594 174.140625 113.027344 173.722656 C 112.890625 173.40625 112.65625 173.105469 112.75 172.761719 C 112.910156 171.539062 113.367188 170.488281 113.519531 169.253906 C 112.324219 170.617188 110.601562 171.351562 108.722656 171.675781 C 107.648438 171.855469 104.507812 172.363281 103.527344 172.34375 C 103.121094 168.882812 102.523438 165.230469 102.101562 161.773438 C 101.984375 160.871094 102.316406 160.328125 102.917969 159.632812 Z M 88.503906 162.175781 L 91.136719 169.34375 C 89.492188 169.25 86.347656 169.054688 84.703125 168.871094 Z M 67.429688 163.589844 C 68.9375 164.175781 71.445312 165.027344 72.785156 165.546875 C 75.726562 166.570312 74.953125 170.511719 71.390625 169.285156 C 69.789062 168.777344 67.65625 168.113281 66.136719 167.535156 C 66.503906 166.242188 67.0625 164.894531 67.429688 163.589844 Z M 67.429688 163.589844 "/>
<path style=" stroke:none;fill-rule:evenodd;fill:rgb(0%,32.54902%,62.745098%);fill-opacity:1;" d="M 146.320312 35.304688 C 143.992188 35.207031 142.453125 35.847656 140.828125 37.222656 C 139.011719 38.875 137.773438 40.796875 137.785156 43.679688 C 137.847656 45.949219 140.328125 49.515625 143.308594 51.398438 C 144.148438 52.019531 145.480469 52.792969 145.609375 53.828125 C 146.597656 52.820312 147.628906 51.820312 148.636719 50.875 C 146.21875 50.148438 142.117188 47.796875 141.527344 45.089844 C 141.152344 42.933594 141.679688 42.230469 142.597656 41.050781 C 144.308594 38.988281 146.039062 38.238281 148.636719 38.957031 C 150.960938 39.882812 153.042969 42.792969 153.222656 44.910156 C 154.429688 44.277344 155.574219 43.777344 156.800781 43.160156 C 155.828125 42.558594 155.398438 41.835938 154.738281 40.960938 C 153.3125 38.882812 150.628906 35.914062 147.375 35.394531 C 147.007812 35.351562 146.652344 35.320312 146.320312 35.304688 Z M 159.128906 46.394531 C 159.082031 47.917969 158.28125 48.386719 157.191406 49.199219 C 154.539062 51.011719 152.027344 52.863281 149.382812 54.621094 C 148.628906 55.097656 147.65625 55.710938 146.585938 55.199219 C 147.445312 56.535156 149.144531 58.789062 150.015625 60.109375 C 150.109375 58.746094 150.839844 58.128906 151.664062 57.585938 C 154.523438 55.679688 157.210938 53.617188 160.082031 51.726562 C 160.910156 51.167969 161.382812 50.921875 162.484375 51.292969 C 161.632812 49.988281 159.992188 47.703125 159.128906 46.394531 Z M 164.207031 53.550781 C 163.417969 54.746094 161.65625 54.019531 160.410156 54.5 C 161.929688 55.355469 163.605469 58.101562 164.238281 59.710938 C 160.839844 61.300781 158.035156 62.730469 154.632812 64.34375 C 153.988281 64.667969 152.96875 64.460938 152.304688 64.210938 C 153.007812 65.632812 154.179688 68.136719 154.886719 69.554688 C 155.261719 68.457031 156.355469 67.523438 157.378906 67.074219 C 160.417969 65.691406 162.921875 64.355469 165.992188 63.050781 C 166.769531 64.582031 168.078125 67.46875 167.640625 69.195312 C 168.8125 68.488281 169.386719 66.945312 170.726562 67.089844 C 169.101562 63.566406 165.847656 57.066406 164.207031 53.550781 Z M 171.585938 68.777344 C 171.261719 70.253906 169.921875 71.105469 169.09375 72.207031 C 167.429688 74.148438 165.429688 76.339844 163.480469 78.308594 C 163.015625 78.742188 161.863281 78.878906 161.164062 79.039062 C 159.714844 79.25 159.039062 79.417969 157.929688 78.488281 C 158.277344 80.050781 158.847656 82.835938 159.160156 84.394531 C 159.777344 83.460938 160.4375 82.910156 161.652344 82.601562 C 162.738281 82.40625 163.695312 81.988281 164.476562 82.328125 C 168.027344 84.261719 174.699219 87.019531 175.53125 87.882812 L 174.316406 82.050781 C 173.921875 82.621094 173.457031 82.894531 172.984375 82.714844 C 170.851562 81.890625 168.316406 80.710938 166.507812 80.019531 C 167.832031 78.480469 169.382812 76.992188 170.78125 75.535156 C 171.390625 74.792969 172.226562 74.496094 172.96875 75.21875 Z M 171.585938 68.777344 "/>
<path style=" stroke:none;fill-rule:evenodd;fill:rgb(0%,32.54902%,62.745098%);fill-opacity:1;" d="M 163.15625 103.203125 C 162.480469 103.21875 161.714844 103.460938 160.898438 104.003906 C 159.734375 105.027344 159.304688 106.625 158.921875 108.058594 C 158.398438 110.472656 157.097656 115.441406 156.625 117.863281 C 157.425781 117.21875 158.121094 117.148438 159.027344 117.347656 C 162.574219 118.109375 166.109375 118.914062 169.644531 119.679688 C 170.5 119.84375 171.128906 120.515625 171.617188 121.265625 C 172.136719 117.902344 174.226562 111.066406 174.171875 107.636719 C 174.101562 104.824219 171.496094 103.03125 169 103.617188 C 167.585938 104.011719 166.792969 105.648438 166.480469 106.792969 C 166.472656 105.085938 165.179688 103.148438 163.15625 103.203125 Z M 163.167969 107.28125 C 164.207031 107.289062 165.167969 108.246094 164.890625 109.453125 C 164.617188 110.707031 164.117188 113.347656 163.8125 114.589844 C 162.605469 114.34375 161.347656 114.074219 160.15625 113.796875 C 160.5 112.503906 160.824219 110.664062 161.164062 109.347656 C 161.507812 107.855469 162.363281 107.28125 163.167969 107.28125 Z M 169.671875 107.503906 C 170.753906 107.542969 171.75 108.628906 171.507812 109.953125 C 171.171875 111.546875 170.558594 114.488281 170.265625 116.054688 C 168.949219 115.789062 167.585938 115.46875 166.257812 115.207031 C 166.59375 113.613281 167.109375 111.3125 167.535156 109.71875 C 167.925781 108.082031 168.824219 107.476562 169.671875 107.503906 Z M 156.371094 118.5625 C 155.375 120.355469 154.464844 122.0625 153.417969 123.878906 C 154.210938 123.5 154.992188 123.457031 155.644531 123.804688 C 157.964844 125.027344 159.9375 126.175781 162.234375 127.453125 C 163.121094 127.964844 164.082031 128.921875 164.179688 130.183594 C 164.144531 131.878906 162.972656 133.925781 161.417969 134.613281 C 160.289062 135.140625 159.007812 134.597656 158.152344 134.105469 C 156.050781 132.839844 154.390625 131.941406 152.289062 130.660156 C 151.5625 130.242188 150.914062 129.933594 150.847656 128.585938 C 149.839844 130.292969 148.933594 132.15625 147.878906 133.914062 C 149.28125 133.289062 150.246094 133.707031 151.25 134.328125 C 153.121094 135.40625 154.679688 136.308594 156.53125 137.386719 C 157.949219 138.191406 159.363281 138.71875 161.296875 138.289062 C 162.964844 137.902344 164.378906 136.289062 165.398438 134.625 C 166.472656 132.882812 167.417969 130.855469 167.3125 128.929688 C 167.214844 126.9375 166.003906 125.578125 164.65625 124.679688 C 162.453125 123.347656 160.703125 122.429688 158.480469 121.132812 C 157.625 120.617188 156.398438 119.84375 156.371094 118.5625 Z M 157.585938 139.078125 C 157.539062 140.753906 156.601562 142.726562 155.40625 144.09375 C 154.804688 144.902344 152.867188 147.101562 152.082031 147.941406 C 149.429688 145.691406 147.011719 143.648438 144.351562 141.410156 C 143.644531 140.832031 143.089844 140.023438 143.058594 139.105469 C 141.957031 140.242188 140.46875 141.925781 139.449219 143.144531 C 140.359375 143.015625 141.214844 143.457031 141.898438 144.039062 C 144.511719 146.265625 147.042969 148.550781 149.691406 150.742188 C 150.488281 151.464844 150.894531 152.164062 150.9375 153.3125 C 153.339844 150.601562 157.800781 145.476562 160.144531 142.71875 C 159.824219 142.578125 159.402344 142.53125 159.222656 142.152344 C 158.527344 140.886719 158.320312 140.078125 157.585938 139.078125 Z M 139.195312 143.457031 C 138.453125 144.433594 136.960938 145 135.886719 145.476562 C 133.5625 146.582031 130.304688 149.234375 129.625 152.335938 C 129.082031 155.011719 129.671875 157.171875 131.148438 159.117188 C 132.613281 161.09375 134.457031 162.242188 137.003906 162.308594 C 139.851562 162.28125 142.886719 160.453125 145.132812 158.167969 C 145.875 157.425781 146.78125 156.410156 147.863281 156.324219 C 146.960938 155.25 146.207031 154.039062 145.222656 153.015625 C 144.585938 154.976562 141.523438 158.195312 139.449219 158.761719 C 137.617188 159.175781 136.394531 158.679688 135.054688 157.527344 C 133.566406 155.988281 132.640625 154.089844 133.257812 151.875 C 134.175781 149.015625 137.96875 146.917969 140.355469 147.332031 C 139.921875 146.054688 139.59375 144.6875 139.195312 143.457031 Z M 139.195312 143.457031 "/>
<path style=" stroke:none;fill-rule:evenodd;fill:rgb(0%,32.54902%,62.745098%);fill-opacity:1;" d="M 95.425781 38.734375 C 95.121094 39.605469 94.917969 40.757812 94.714844 41.765625 C 94.671875 41.984375 94.558594 42.136719 94.425781 42.296875 C 87.671875 49.09375 79.328125 47.117188 76.21875 57.085938 C 75.863281 57.925781 76.3125 58.816406 77.816406 59.648438 C 77.96875 59.742188 78.101562 59.703125 78.101562 59.542969 C 77.722656 48.71875 92.347656 49.453125 95.542969 41.941406 C 95.578125 41.863281 95.6875 41.882812 95.71875 41.941406 C 98.410156 46.957031 102.851562 47.613281 106.910156 49.960938 C 109.949219 51.714844 112.140625 53.304688 112.761719 58.285156 C 112.78125 58.519531 112.847656 58.476562 112.96875 58.355469 C 113.425781 57.847656 114.542969 57.585938 114.511719 56.828125 C 113.527344 49.480469 105.433594 47.890625 98.941406 44.867188 C 98.671875 44.65625 98.394531 44.449219 98.125 44.242188 C 96.765625 42.636719 95.730469 40.824219 95.425781 38.734375 Z M 95.308594 47.925781 C 95.234375 47.929688 95.175781 47.945312 95.109375 47.980469 C 95.042969 48.015625 94.972656 48.089844 94.933594 48.164062 C 94.898438 48.230469 94.914062 48.445312 94.933594 48.589844 C 94.960938 48.6875 95.046875 48.738281 95.097656 48.800781 C 95.207031 48.933594 95.300781 49.007812 95.441406 49.113281 C 95.613281 49.226562 95.828125 49.085938 95.867188 48.949219 C 95.917969 48.710938 95.917969 48.445312 95.867188 48.234375 C 95.855469 48.160156 95.792969 48.109375 95.746094 48.042969 C 95.683594 47.96875 95.609375 47.929688 95.496094 47.925781 C 95.449219 47.921875 95.371094 47.917969 95.308594 47.925781 Z M 97.515625 49.972656 C 97.492188 49.976562 97.484375 49.980469 97.457031 50.003906 C 97.414062 50.035156 97.382812 50.09375 97.382812 50.148438 C 97.375 50.445312 97.242188 50.875 97.515625 51.027344 C 97.648438 51.089844 97.816406 51.113281 97.917969 50.996094 C 97.96875 50.910156 98.070312 50.878906 98.066406 50.730469 C 98.066406 50.65625 97.964844 50.632812 97.933594 50.554688 C 97.890625 50.433594 97.914062 50.222656 97.871094 50.136719 C 97.832031 50.070312 97.792969 50.011719 97.722656 50.003906 C 97.652344 49.988281 97.585938 49.953125 97.515625 49.972656 Z M 93.449219 50.015625 C 93.253906 50.082031 93.046875 50.226562 92.972656 50.476562 C 92.886719 50.625 92.894531 50.742188 92.972656 50.832031 C 93.078125 50.984375 93.207031 51.167969 93.386719 51.25 C 93.539062 51.324219 93.738281 51.324219 93.804688 50.996094 C 93.882812 50.722656 93.886719 50.34375 93.765625 50.238281 C 93.605469 50.125 93.644531 49.96875 93.449219 50.015625 Z M 95.601562 53.59375 C 94.738281 56.195312 94.511719 57.507812 93.898438 59.578125 C 95.023438 59.585938 95.648438 59.589844 96.460938 59.605469 C 95.800781 57.246094 95.769531 56.308594 95.601562 53.59375 Z M 95.601562 53.59375 "/>
<path style=" stroke:none;fill-rule:evenodd;fill:rgb(0%,32.54902%,62.745098%);fill-opacity:1;" d="M 55.703125 66.449219 C 55.664062 66.449219 55.617188 66.46875 55.570312 66.507812 C 49.550781 70.753906 47.917969 78.277344 40.175781 77.035156 C 45.671875 79.601562 45.539062 85.917969 46.097656 91.773438 C 46.570312 96.707031 50.34375 103.355469 60.515625 101.96875 C 60.625 101.960938 60.703125 101.871094 60.632812 101.761719 C 59.980469 100.835938 57.800781 101.140625 57.257812 101.050781 C 49.207031 99.539062 47.84375 92.136719 46.171875 83.753906 C 45.785156 81.332031 44.210938 79.804688 43.25 77.984375 C 43.179688 77.800781 43.117188 77.742188 43.351562 77.699219 C 48.480469 76.714844 52.347656 72.265625 56.460938 67.535156 C 56.546875 67.480469 56.5625 67.363281 56.460938 67.277344 C 56.226562 67.046875 56.015625 66.789062 55.804688 66.507812 C 55.769531 66.46875 55.746094 66.445312 55.703125 66.449219 Z M 54.933594 76.1875 C 54.859375 76.191406 54.785156 76.207031 54.722656 76.246094 C 54.652344 76.277344 54.585938 76.351562 54.542969 76.425781 C 54.507812 76.492188 54.523438 76.707031 54.542969 76.855469 C 54.570312 76.949219 54.671875 77 54.722656 77.0625 C 54.832031 77.195312 54.929688 77.273438 55.066406 77.375 C 55.238281 77.492188 55.441406 77.347656 55.480469 77.210938 C 55.53125 76.972656 55.53125 76.707031 55.480469 76.496094 C 55.464844 76.421875 55.40625 76.375 55.359375 76.304688 C 55.292969 76.230469 55.222656 76.191406 55.109375 76.1875 C 55.058594 76.183594 55 76.179688 54.933594 76.1875 Z M 57.246094 78.292969 C 57.222656 78.296875 57.199219 78.308594 57.171875 78.324219 C 57.132812 78.355469 57.097656 78.410156 57.097656 78.472656 C 57.082031 78.761719 56.933594 79.191406 57.203125 79.347656 C 57.332031 79.417969 57.496094 79.433594 57.601562 79.320312 C 57.660156 79.234375 57.761719 79.214844 57.761719 79.066406 C 57.765625 78.992188 57.675781 78.972656 57.648438 78.886719 C 57.613281 78.769531 57.628906 78.554688 57.585938 78.472656 C 57.554688 78.40625 57.511719 78.335938 57.441406 78.324219 C 57.367188 78.308594 57.316406 78.277344 57.246094 78.292969 Z M 53.148438 78.605469 C 52.957031 78.671875 52.746094 78.828125 52.675781 79.082031 C 52.589844 79.226562 52.59375 79.332031 52.675781 79.421875 C 52.773438 79.574219 52.921875 79.757812 53.101562 79.835938 C 53.257812 79.910156 53.453125 79.929688 53.523438 79.597656 C 53.597656 79.328125 53.585938 78.933594 53.460938 78.828125 C 53.304688 78.714844 53.347656 78.558594 53.148438 78.605469 Z M 55.527344 82.140625 C 55.207031 84.765625 54.25 87.769531 53.3125 89.742188 C 54.40625 89.59375 55.277344 90.257812 55.347656 91.105469 C 55.621094 90.144531 56.355469 89.40625 57.230469 89.664062 C 56.65625 87.28125 55.949219 84.71875 55.527344 82.140625 Z M 55.527344 82.140625 "/>
<path style=" stroke:none;fill-rule:evenodd;fill:rgb(0%,32.54902%,62.745098%);fill-opacity:1;" d="M 64.117188 107.726562 C 64.074219 107.738281 64.027344 107.753906 63.972656 107.773438 C 54.652344 111.375 52.789062 119.746094 58 127.113281 C 61.914062 133.691406 63.648438 136.402344 61.785156 141.691406 C 69.070312 133.015625 81.980469 147.046875 89.382812 136.230469 C 89.484375 136.097656 89.328125 136.003906 89.171875 135.855469 C 88.8125 135.605469 88.433594 135.4375 88.0625 135.292969 C 87.789062 135.1875 87.636719 135.25 87.46875 135.488281 C 84.4375 138.679688 74.609375 137.972656 67.179688 137.992188 C 66.949219 137.992188 66.269531 138.113281 66.046875 138.234375 C 65.335938 138.597656 64.613281 138.921875 63.851562 138.855469 C 63.648438 138.855469 63.339844 138.746094 63.390625 138.324219 C 63.761719 132.917969 60.546875 129.484375 58.507812 125.023438 C 57.871094 123.503906 53.148438 114.972656 64.503906 109.789062 C 64.554688 109.691406 64.664062 109.632812 64.652344 109.480469 C 64.617188 108.953125 64.507812 108.429688 64.355469 107.890625 C 64.328125 107.757812 64.25 107.710938 64.117188 107.726562 Z M 72.550781 118.03125 C 72.476562 118.042969 72.402344 118.054688 72.339844 118.089844 C 72.269531 118.125 72.203125 118.195312 72.164062 118.269531 C 72.132812 118.339844 72.140625 118.554688 72.164062 118.699219 C 72.1875 118.792969 72.289062 118.84375 72.339844 118.90625 C 72.453125 119.039062 72.546875 119.113281 72.683594 119.21875 C 72.859375 119.332031 73.078125 119.191406 73.113281 119.050781 C 73.160156 118.816406 73.167969 118.550781 73.113281 118.339844 C 73.097656 118.265625 73.023438 118.222656 72.984375 118.148438 C 72.910156 118.074219 72.855469 118.042969 72.742188 118.03125 C 72.691406 118.023438 72.621094 118.019531 72.550781 118.03125 Z M 74.898438 120.019531 C 74.871094 120.023438 74.84375 120.03125 74.820312 120.050781 C 74.78125 120.082031 74.742188 120.140625 74.746094 120.195312 C 74.734375 120.492188 74.582031 120.914062 74.847656 121.078125 C 74.984375 121.140625 75.128906 121.15625 75.238281 121.042969 C 75.289062 120.957031 75.414062 120.945312 75.414062 120.789062 C 75.417969 120.71875 75.3125 120.699219 75.28125 120.613281 C 75.242188 120.496094 75.277344 120.28125 75.238281 120.195312 C 75.199219 120.132812 75.164062 120.058594 75.085938 120.050781 C 75.019531 120.03125 74.964844 120.007812 74.898438 120.019531 Z M 70.710938 120.273438 C 70.515625 120.339844 70.308594 120.496094 70.238281 120.746094 C 70.144531 120.890625 70.15625 121 70.238281 121.089844 C 70.335938 121.242188 70.46875 121.417969 70.648438 121.503906 C 70.800781 121.578125 71 121.59375 71.0625 121.265625 C 71.140625 120.996094 71.148438 120.601562 71.019531 120.496094 C 70.863281 120.382812 70.90625 120.226562 70.710938 120.273438 Z M 72.851562 123.652344 C 72.53125 126.28125 71.570312 129.28125 70.636719 131.253906 C 71.726562 131.109375 72.601562 131.757812 72.667969 132.609375 C 72.945312 131.648438 73.679688 130.921875 74.554688 131.183594 C 73.976562 128.800781 73.265625 126.238281 72.851562 123.652344 Z M 72.851562 123.652344 "/>
<path style=" stroke:none;fill-rule:evenodd;fill:rgb(0%,32.54902%,62.745098%);fill-opacity:1;" d="M 125.792969 107.714844 C 125.746094 107.71875 125.691406 107.765625 125.671875 107.816406 C 125.46875 108.253906 125.261719 108.671875 125.050781 109.109375 C 124.863281 109.605469 124.855469 110.027344 125.601562 110.265625 C 138.953125 115.722656 132.378906 126.054688 128.898438 132.113281 C 128.535156 132.738281 127.671875 134.574219 127.605469 135.382812 C 127.472656 136.242188 127.605469 136.992188 127.585938 137.890625 C 127.585938 138.101562 127.292969 138.15625 127.132812 138.125 C 118.582031 136.484375 111.1875 144.039062 104.179688 135.886719 C 103.535156 135.1875 102.757812 135.121094 102.476562 135.339844 C 102.164062 135.570312 101.9375 135.828125 101.71875 136.171875 C 101.574219 136.375 101.578125 136.492188 101.75 136.703125 C 109.035156 146.917969 119.804688 134.855469 129.042969 139.9375 C 126.878906 134.742188 131.144531 129.703125 133.558594 125.171875 C 138.921875 116.058594 132.648438 110.460938 125.839844 107.714844 C 125.820312 107.703125 125.8125 107.714844 125.792969 107.714844 Z M 118.714844 117.835938 C 118.644531 117.84375 118.582031 117.859375 118.519531 117.898438 C 118.449219 117.929688 118.382812 118.003906 118.34375 118.074219 C 118.3125 118.144531 118.320312 118.371094 118.34375 118.519531 C 118.367188 118.613281 118.453125 118.652344 118.503906 118.714844 C 118.613281 118.84375 118.707031 118.921875 118.847656 119.023438 C 119.023438 119.140625 119.238281 119 119.273438 118.863281 C 119.328125 118.625 119.328125 118.355469 119.273438 118.148438 C 119.261719 118.066406 119.203125 118.023438 119.160156 117.957031 C 119.089844 117.882812 119.019531 117.84375 118.90625 117.835938 C 118.859375 117.832031 118.78125 117.828125 118.714844 117.835938 Z M 120.957031 119.886719 C 120.929688 119.886719 120.90625 119.898438 120.878906 119.917969 C 120.835938 119.945312 120.804688 120.007812 120.804688 120.0625 C 120.792969 120.355469 120.640625 120.78125 120.910156 120.9375 C 121.042969 121.007812 121.203125 121.023438 121.3125 120.910156 C 121.363281 120.824219 121.472656 120.808594 121.472656 120.65625 C 121.472656 120.585938 121.390625 120.5625 121.355469 120.476562 C 121.316406 120.359375 121.335938 120.148438 121.300781 120.0625 C 121.261719 119.996094 121.234375 119.925781 121.160156 119.917969 C 121.09375 119.898438 121.023438 119.875 120.957031 119.886719 Z M 116.816406 120.195312 C 116.617188 120.265625 116.425781 120.425781 116.355469 120.671875 C 116.269531 120.820312 116.273438 120.921875 116.355469 121.011719 C 116.457031 121.167969 116.585938 121.34375 116.769531 121.425781 C 116.917969 121.503906 117.117188 121.515625 117.183594 121.1875 C 117.261719 120.917969 117.25 120.523438 117.121094 120.417969 C 116.972656 120.308594 117.007812 120.148438 116.816406 120.195312 Z M 119.085938 123.582031 C 118.773438 126.210938 117.808594 129.210938 116.871094 131.183594 C 117.96875 131.035156 118.839844 131.703125 118.90625 132.546875 C 119.179688 131.585938 119.914062 130.851562 120.789062 131.109375 C 120.214844 128.722656 119.507812 126.164062 119.085938 123.582031 Z M 119.085938 123.582031 "/>
<path style=" stroke:none;fill-rule:evenodd;fill:rgb(0%,32.54902%,62.745098%);fill-opacity:1;" d="M 133.898438 66.3125 C 133.871094 66.324219 133.847656 66.347656 133.824219 66.375 C 133.722656 66.492188 133.640625 67.144531 133.613281 67.578125 C 133.609375 67.667969 133.609375 67.738281 133.707031 67.800781 C 135.617188 68.964844 141.351562 75.464844 146.351562 76.601562 C 146.570312 76.648438 146.597656 76.832031 146.488281 76.945312 C 140.546875 83.925781 147.632812 94.832031 135.917969 98.988281 C 133.742188 99.585938 131.554688 99.300781 131.148438 100.75 C 131.140625 100.804688 131.210938 100.867188 131.253906 100.867188 C 138.296875 101.316406 142.691406 98.941406 144.007812 93.910156 C 145.703125 88.304688 142.511719 80.339844 148.519531 75.996094 C 148.671875 75.878906 148.589844 75.679688 148.457031 75.695312 C 142.382812 76.3125 138.5 69.867188 133.984375 66.328125 C 133.960938 66.3125 133.925781 66.308594 133.898438 66.3125 Z M 135.828125 75.695312 C 135.757812 75.710938 135.683594 75.730469 135.617188 75.769531 C 135.550781 75.804688 135.480469 75.875 135.441406 75.953125 C 135.410156 76.015625 135.421875 76.230469 135.441406 76.378906 C 135.46875 76.472656 135.554688 76.527344 135.605469 76.585938 C 135.714844 76.722656 135.808594 76.78125 135.945312 76.882812 C 136.121094 77 136.335938 76.871094 136.375 76.734375 C 136.425781 76.496094 136.425781 76.230469 136.375 76.019531 C 136.363281 75.945312 136.300781 75.882812 136.261719 75.8125 C 136.191406 75.742188 136.117188 75.703125 136.003906 75.695312 C 135.957031 75.695312 135.894531 75.683594 135.828125 75.695312 Z M 137.890625 77.984375 C 137.867188 77.988281 137.84375 77.992188 137.820312 78.011719 C 137.777344 78.046875 137.757812 78.101562 137.757812 78.160156 C 137.742188 78.453125 137.597656 78.875 137.863281 79.039062 C 137.988281 79.105469 138.140625 79.121094 138.246094 79.003906 C 138.300781 78.917969 138.414062 78.90625 138.414062 78.753906 C 138.414062 78.683594 138.324219 78.664062 138.292969 78.578125 C 138.253906 78.457031 138.273438 78.246094 138.230469 78.160156 C 138.199219 78.09375 138.167969 78.023438 138.097656 78.011719 C 138.027344 77.992188 137.960938 77.96875 137.890625 77.984375 Z M 133.648438 78.011719 C 133.453125 78.078125 133.257812 78.234375 133.1875 78.488281 C 133.101562 78.632812 133.105469 78.738281 133.1875 78.828125 C 133.289062 78.980469 133.421875 79.164062 133.601562 79.242188 C 133.753906 79.320312 133.949219 79.332031 134.019531 79.003906 C 134.089844 78.734375 134.085938 78.355469 133.957031 78.25 C 133.800781 78.136719 133.84375 77.964844 133.648438 78.011719 Z M 135.933594 81.367188 C 135.617188 83.992188 134.65625 86.992188 133.71875 88.964844 C 134.8125 88.820312 135.691406 89.484375 135.753906 90.335938 C 136.027344 89.375 136.761719 88.632812 137.640625 88.890625 C 137.0625 86.511719 136.355469 83.945312 135.933594 81.367188 Z M 135.933594 81.367188 "/>
<path style=" stroke:none;fill-rule:evenodd;fill:rgb(0%,32.54902%,62.745098%);fill-opacity:1;" d="M 129.863281 50.046875 C 129.839844 50.050781 129.8125 50.050781 129.789062 50.0625 C 124.390625 51.589844 117.105469 57.816406 111.101562 63.273438 C 110.925781 63.472656 110.683594 63.515625 110.488281 63.449219 C 106.496094 62.136719 101.855469 61.96875 97.992188 61.863281 C 92.476562 61.355469 85.84375 62.027344 79.910156 63.953125 C 79.65625 64.042969 79.464844 63.808594 79.273438 63.582031 C 74.578125 58.355469 67.960938 54.078125 60.820312 51.097656 C 60.621094 51.003906 60.457031 50.917969 60.226562 51.128906 C 56.5625 54.507812 57.367188 64.523438 60.515625 69.953125 C 60.882812 70.742188 60.964844 72.121094 60.972656 72.59375 C 61.199219 75.511719 61.765625 78.035156 62.53125 80.757812 C 62.722656 82.449219 63.367188 84.167969 64.339844 85.625 C 64.53125 85.859375 64.449219 86.070312 64.3125 86.21875 C 63.070312 87.464844 61.933594 88.644531 60.691406 89.886719 C 60.601562 89.972656 60.429688 90.035156 60.261719 90.0625 C 59.230469 90.183594 58.90625 90.519531 58.417969 91.710938 C 58.347656 91.882812 58.355469 92 58.445312 92.144531 C 58.621094 92.472656 59.820312 94.542969 60.808594 95.644531 C 61.761719 96.589844 61.40625 97.488281 60.601562 98.347656 C 62.121094 99.488281 64.847656 101.667969 65.011719 102 C 65.183594 102.878906 66.730469 103.171875 65.808594 104.433594 C 66.050781 104.488281 66.199219 104.578125 66.386719 104.730469 C 66.527344 104.878906 66.554688 105.019531 66.570312 105.175781 C 66.691406 106.542969 66.949219 107.785156 67.707031 109.09375 C 70.796875 114.332031 74.253906 113.523438 78.367188 117.988281 C 80.828125 120.660156 83.257812 120.765625 84.929688 125.484375 C 84.773438 127.273438 84.679688 128.371094 85.417969 129.917969 C 86.292969 131.808594 88.441406 131.882812 91.207031 133.140625 C 91.578125 133.285156 91.78125 133.398438 92.054688 133.675781 C 92.773438 134.378906 93.605469 134.832031 94.546875 135.277344 C 95.308594 135.601562 96.207031 135.601562 96.90625 135.25 C 98.238281 134.488281 98.515625 135.039062 100.972656 133.273438 C 103.292969 132.589844 107.078125 129.734375 106.671875 124.875 C 106.6875 124.734375 106.71875 124.636719 106.761719 124.515625 C 106.835938 124.289062 107.042969 124.066406 107.238281 123.851562 C 108.171875 122.734375 109.242188 121.746094 109.898438 120.390625 C 110.03125 120.0625 110.144531 119.746094 110.445312 119.5 C 119.695312 111.945312 116.425781 115.265625 119.769531 112.703125 C 126.628906 107.484375 122.125 101.398438 130.15625 97.992188 C 129.070312 95.6875 129.441406 95.476562 132.976562 90.570312 C 131.109375 89.582031 129.804688 88.449219 128.507812 87.539062 C 124.4375 84.347656 128.132812 81.640625 128.46875 80.074219 C 128.699219 79.183594 129.050781 78.0625 129.136719 76.929688 C 129.566406 74.3125 129.324219 71.230469 130.660156 69.863281 C 131.644531 68.914062 131.929688 63.710938 132.085938 63.289062 C 133.164062 59.890625 132.769531 59.4375 132.964844 57.304688 C 132.996094 57.019531 133.097656 56.789062 132.964844 56.476562 C 132.214844 54.40625 131.292969 52.402344 130.230469 50.414062 C 130.136719 50.242188 130.066406 50.078125 129.933594 50.046875 C 129.914062 50.039062 129.886719 50.046875 129.863281 50.046875 Z M 126.65625 58.035156 C 126.222656 62.296875 124.671875 65.117188 125.15625 68.6875 C 123.347656 70.910156 123.953125 75.058594 122.289062 77.539062 C 122.183594 77.679688 122.035156 77.761719 121.859375 77.746094 C 119.648438 77.378906 118.101562 74.597656 116.222656 73.023438 C 116.03125 72.871094 115.933594 72.730469 115.996094 72.578125 C 116.761719 70.878906 118.519531 69.171875 117.15625 67.441406 C 117.222656 62.488281 123.140625 61.691406 126.65625 58.035156 Z M 63.019531 58.851562 C 66.492188 60.792969 68.707031 64.058594 70.414062 64.105469 C 70.679688 64.519531 71.058594 64.945312 71.375 65.277344 C 73.929688 68.183594 71.902344 69.269531 74.148438 72.996094 C 74.394531 73.519531 74.5 74.027344 74.148438 74.34375 C 72.648438 75.652344 71.316406 76.976562 70.070312 78.410156 C 68.421875 80.410156 67.617188 79.675781 67.132812 78.410156 C 66.828125 77.476562 66.503906 76.417969 66.925781 75.335938 C 67.1875 74.742188 67.03125 74.257812 66.582031 73.691406 C 65.984375 72.851562 65.496094 71.960938 65.023438 71.078125 C 64.859375 70.746094 64.75 70.460938 64.683594 70.042969 C 64.089844 66.367188 64.199219 60.867188 63.019531 58.851562 Z M 106.140625 95.246094 C 106.394531 95.21875 106.617188 95.390625 106.644531 95.644531 C 106.671875 95.902344 106.484375 96.136719 106.230469 96.164062 C 105.976562 96.191406 105.753906 96.003906 105.722656 95.75 C 105.699219 95.496094 105.890625 95.273438 106.140625 95.246094 Z M 82.433594 95.289062 C 82.691406 95.265625 82.914062 95.433594 82.9375 95.691406 C 82.96875 95.945312 82.773438 96.164062 82.523438 96.195312 C 82.273438 96.222656 82.042969 96.046875 82.023438 95.796875 C 81.992188 95.539062 82.183594 95.316406 82.433594 95.289062 Z M 120.628906 105.605469 C 121.003906 105.609375 121.117188 105.960938 121.074219 106.316406 C 120.675781 111.351562 118.328125 109.964844 112.96875 114.734375 C 111.566406 115.855469 112.027344 116.941406 110.136719 118.535156 C 108.550781 120.015625 107.074219 121.5625 105.722656 123.480469 C 105.503906 123.808594 105.34375 123.460938 105.324219 123.3125 C 105.257812 122.914062 105.019531 122.460938 104.6875 122.097656 C 103.800781 121.097656 105.214844 121.222656 103.621094 118.832031 C 102.957031 117.863281 102.191406 119.113281 101.734375 117.542969 C 101.449219 116.527344 101.71875 117.027344 101.363281 114.675781 L 102.300781 113.902344 C 102.738281 115.15625 103.359375 116.207031 104.03125 117.078125 C 104.132812 117.199219 103.945312 118.257812 104.359375 119.191406 C 104.445312 117.71875 105.761719 116.871094 103.886719 114.230469 C 103.640625 113.886719 103.515625 113.550781 103.425781 113.148438 C 103.414062 113.105469 103.40625 113.070312 103.394531 113.027344 C 106.949219 110.71875 110.925781 108.835938 114.679688 107.28125 C 114.484375 107.496094 114.300781 107.710938 114.109375 107.9375 C 114.027344 108.042969 114.191406 108.078125 114.246094 108.058594 C 114.472656 107.992188 114.582031 108.023438 114.761719 108.058594 C 114.882812 108.125 114.867188 108.25 114.867188 108.363281 C 114.894531 108.800781 114.542969 108.828125 114.648438 109.3125 C 115.265625 108.523438 115.855469 107.753906 116.484375 107.03125 C 116.632812 106.84375 116.828125 106.625 117.121094 106.660156 L 117.808594 106.75 C 118.039062 106.757812 118.265625 106.714844 118.519531 106.644531 C 119.125 106.40625 119.574219 106.113281 120.152344 105.722656 C 120.34375 105.632812 120.5 105.605469 120.628906 105.605469 Z M 70.1875 106.40625 C 70.210938 106.40625 70.25 106.421875 70.277344 106.4375 C 72.058594 107.332031 74.488281 107.890625 75.726562 108.410156 C 76.378906 108.714844 77.078125 109.167969 77.578125 109.242188 C 77.789062 109.257812 77.789062 109.144531 77.683594 109.019531 C 77.550781 108.8125 77.417969 108.613281 77.285156 108.425781 C 80.34375 109.847656 83.179688 111.492188 86.175781 113.476562 C 86.167969 113.5 86.152344 113.523438 86.148438 113.546875 C 86.0625 113.804688 85.976562 114.035156 85.890625 114.246094 C 85.84375 114.363281 85.792969 114.496094 85.746094 114.601562 C 85.707031 114.691406 85.664062 114.785156 85.625 114.867188 C 85.554688 115.019531 85.484375 115.1875 85.417969 115.316406 C 85.332031 115.480469 85.238281 115.671875 85.164062 115.816406 C 85.144531 115.875 85.117188 115.925781 85.09375 115.984375 C 85.046875 116.089844 84.992188 116.191406 84.960938 116.292969 C 84.9375 116.363281 84.917969 116.429688 84.898438 116.5 C 84.890625 116.535156 84.875 116.566406 84.871094 116.605469 C 84.851562 116.699219 84.847656 116.796875 84.839844 116.898438 C 84.832031 116.996094 84.832031 117.09375 84.839844 117.199219 C 84.847656 117.308594 84.851562 117.417969 84.871094 117.542969 C 84.90625 117.839844 84.992188 117.957031 85.09375 118.003906 C 85.121094 118.015625 85.164062 118.019531 85.199219 118.03125 C 85.269531 118.046875 85.40625 118.066406 85.449219 117.957031 C 85.484375 117.847656 85.535156 117.746094 85.582031 117.644531 C 85.628906 117.542969 85.671875 117.449219 85.730469 117.347656 C 85.839844 117.148438 85.96875 116.949219 86.101562 116.753906 C 86.128906 116.710938 86.160156 116.664062 86.191406 116.621094 C 86.433594 116.277344 86.699219 115.953125 86.945312 115.613281 C 86.972656 115.578125 86.984375 115.550781 87.007812 115.523438 C 87.109375 115.375 87.199219 115.222656 87.289062 115.074219 C 87.324219 115.023438 87.359375 114.96875 87.394531 114.914062 C 87.476562 114.765625 87.5625 114.621094 87.628906 114.46875 L 89.546875 115.894531 C 89.226562 116.671875 88.820312 117.726562 88.699219 118.476562 C 88.476562 120.164062 87.441406 119.785156 86.667969 119.140625 C 86.714844 120.878906 86.847656 121.628906 85.878906 123.152344 C 85.75 123.371094 85.628906 123.292969 85.550781 123.152344 C 83.207031 118.632812 80.945312 119.710938 77.984375 114.898438 C 77.71875 114.203125 77.214844 113.535156 76.242188 113.175781 C 72.59375 111.738281 69.984375 110.75 70.070312 106.554688 C 70.074219 106.480469 70.113281 106.40625 70.1875 106.40625 Z M 102.398438 121.488281 C 102.550781 121.5 102.683594 121.628906 102.738281 121.789062 C 103.476562 123.449219 104.394531 126.375 104.09375 127.320312 C 103.011719 131.472656 100.085938 132.160156 97.367188 131.804688 C 95.328125 131.539062 95.320312 131.0625 95.289062 129.699219 C 95.292969 129.546875 95.496094 129.492188 95.660156 129.445312 C 98.125 128.671875 99.605469 127.332031 99.667969 124.769531 C 99.679688 124.421875 99.722656 124.058594 99.546875 123.742188 C 100.238281 123.304688 100.871094 122.847656 101.496094 122.277344 C 101.515625 122.257812 101.539062 122.238281 101.550781 122.214844 C 101.742188 121.917969 101.957031 121.675781 102.25 121.515625 C 102.304688 121.5 102.351562 121.484375 102.398438 121.488281 Z M 88.714844 121.804688 C 88.792969 121.777344 88.867188 121.820312 88.953125 121.921875 C 89.011719 121.988281 89.097656 122.199219 89.292969 122.199219 C 89.625 122.621094 90.085938 122.980469 90.523438 123.300781 C 90.390625 123.429688 90.308594 123.582031 90.257812 123.742188 C 90.117188 124.140625 90.144531 124.808594 90.257812 125.421875 C 90.304688 125.78125 90.429688 126.101562 90.613281 126.414062 C 91.503906 127.796875 92.132812 128.417969 93.136719 129.101562 C 93.554688 129.355469 94.015625 129.574219 94.546875 129.523438 C 94.695312 129.5 94.78125 129.601562 94.753906 129.726562 C 94.59375 131.761719 93.667969 131.898438 91.328125 131.613281 C 86.140625 130.574219 85.683594 127.195312 88.488281 122.097656 C 88.554688 121.917969 88.636719 121.824219 88.714844 121.804688 Z M 95.441406 132.828125 C 96.15625 132.8125 96.917969 132.835938 97.664062 132.933594 C 97.777344 132.953125 97.785156 133.050781 97.753906 133.125 C 97.648438 133.40625 97.335938 133.761719 97.171875 133.898438 C 97.074219 133.976562 96.921875 134.007812 96.789062 134.046875 C 96.226562 134.195312 95.355469 134.261719 95.203125 134.238281 C 95.0625 134.210938 94.925781 134.15625 94.796875 134.074219 C 94.308594 133.800781 93.855469 133.480469 93.375 133.1875 C 93.269531 133.109375 93.265625 132.984375 93.386719 132.964844 C 94.035156 132.902344 94.71875 132.847656 95.441406 132.828125 Z M 95.441406 132.828125 "/>
<path style=" stroke:none;fill-rule:evenodd;fill:rgb(99.215686%,74.509804%,6.666667%);fill-opacity:1;" d="M 129.285156 53.816406 C 129.253906 53.816406 129.226562 53.820312 129.195312 53.828125 C 123.300781 55.972656 115.988281 60.238281 112.183594 65.898438 C 110.648438 67.136719 109.078125 68.339844 107.445312 69.398438 C 110.835938 64.898438 104.074219 64.597656 95.929688 63.714844 C 90.328125 63.234375 83.644531 64.988281 81.472656 66.179688 C 81.273438 66.292969 81.152344 66.519531 81.308594 66.714844 C 81.914062 67.582031 82.101562 68.597656 82.460938 69.554688 C 82.511719 69.65625 82.410156 69.664062 82.332031 69.597656 C 75.242188 63.25 64.652344 54.691406 61.121094 53.84375 C 60.953125 53.816406 60.804688 53.871094 60.71875 54.027344 C 60.464844 54.550781 60.40625 54.707031 60.214844 55.226562 C 60.074219 55.6875 59.824219 55.972656 59.695312 56.101562 C 57.675781 58.082031 61.214844 61.796875 61.742188 68.589844 C 62.097656 71.457031 62.789062 72.746094 63.449219 74.714844 C 63.550781 74.984375 63.613281 75.210938 63.65625 75.476562 C 64.574219 78.640625 65.171875 81.863281 66.386719 84.796875 C 67.835938 89.503906 62.15625 88.730469 61.925781 92.632812 C 61.792969 95.285156 64.902344 96.738281 64.371094 98.675781 C 64.335938 98.796875 64.109375 98.929688 64.238281 99.089844 C 66.632812 101.574219 67.558594 100.992188 68.527344 103.054688 C 70.773438 106.992188 73.214844 102.683594 77.285156 108.425781 C 80.34375 109.847656 83.179688 111.492188 86.175781 113.476562 C 86.390625 112.804688 86.589844 111.976562 86.769531 110.890625 C 87.125 108.75 87.054688 106.585938 85.703125 103.601562 C 85.453125 103.164062 85.601562 102.425781 86.042969 102.078125 C 86.265625 101.910156 86.363281 101.84375 86.386719 102.1875 C 86.765625 106.160156 90.019531 108.839844 88.015625 112.597656 C 87.945312 112.734375 87.859375 112.847656 87.882812 113.070312 C 87.925781 113.578125 87.820312 114.035156 87.628906 114.46875 L 89.546875 115.894531 C 89.671875 115.582031 89.789062 115.324219 89.859375 115.140625 C 90.710938 110.722656 91.382812 103.601562 92.023438 102.710938 C 92.082031 102.628906 92.152344 102.492188 92.023438 102.398438 C 91.277344 101.628906 90.441406 100.351562 90.824219 99.964844 C 91.230469 99.65625 93.609375 100.617188 93.597656 102.34375 C 93.496094 103.886719 91.992188 118.179688 90.109375 120.195312 C 90.019531 120.300781 90.054688 120.371094 90.109375 120.449219 C 90.929688 121.605469 90.753906 121.894531 90.464844 122.039062 C 90.203125 122.140625 89.660156 122.097656 89.414062 122.1875 C 89.371094 122.199219 89.328125 122.199219 89.292969 122.199219 C 89.625 122.621094 90.085938 122.980469 90.523438 123.300781 C 90.785156 123.042969 91.226562 122.851562 91.90625 122.75 C 94.558594 122.289062 97.09375 122.367188 99.03125 123.285156 C 99.289062 123.417969 99.453125 123.574219 99.546875 123.742188 C 100.238281 123.304688 100.871094 122.847656 101.496094 122.277344 C 101.316406 122.410156 100.929688 122.28125 100.871094 121.976562 C 99.808594 116.183594 98.675781 115.289062 98.003906 110.921875 C 97.734375 109.4375 97.605469 107.886719 97.882812 106.464844 C 97.976562 106.003906 98.003906 105.585938 97.882812 105.085938 C 97.5 103.660156 97.523438 102.167969 97.84375 100.75 C 98.0625 100.273438 98.617188 99.640625 99.015625 99.101562 C 99.34375 98.671875 99.578125 98.167969 99.757812 97.621094 C 99.941406 97.054688 101.78125 94.3125 103.347656 93.878906 C 103.480469 93.84375 103.5 93.765625 103.515625 93.640625 C 103.527344 93.503906 103.273438 93.5 103.292969 93.289062 C 103.347656 92.195312 110.214844 92.785156 113.832031 93.121094 C 115.207031 93 116.582031 92.785156 117.882812 92.542969 C 118.109375 92.5 118.125 92.578125 117.988281 92.722656 C 116.910156 93.910156 115.355469 94.5625 113.949219 94.742188 C 113.683594 94.78125 113.613281 94.925781 113.5625 95.128906 C 112.757812 99.160156 106.925781 101.105469 104.390625 100.632812 C 104.226562 100.601562 104.222656 100.71875 104.226562 100.800781 C 104.410156 102.863281 103.523438 103.074219 102.753906 109.109375 C 102.707031 109.445312 102.722656 109.746094 102.773438 110.089844 C 102.894531 111.066406 103.175781 111.996094 103.394531 113.027344 C 106.949219 110.71875 110.925781 108.835938 114.679688 107.28125 C 115.4375 106.421875 116.1875 105.648438 116.976562 104.773438 C 117.195312 104.484375 117.617188 104.308594 118.015625 104.167969 C 121.003906 102.910156 124.03125 100.960938 126.300781 98.496094 C 126.367188 98.414062 126.503906 98.28125 126.460938 98.125 C 125.769531 94.882812 127.90625 93.925781 129.25 91.519531 C 129.453125 91.207031 129.234375 91.125 129.011719 91.011719 C 127.535156 90.082031 126.191406 88.792969 125.15625 87.585938 C 124.914062 87.226562 124.808594 86.769531 124.722656 86.367188 C 123.652344 81.332031 125.867188 80.964844 126.265625 78.054688 C 126.238281 76.605469 126.628906 74.902344 127.082031 73.398438 C 127.621094 71.644531 127.863281 70.21875 128.480469 69.238281 C 128.785156 60.472656 131.507812 62.449219 130.765625 57.777344 C 130.570312 56.84375 130.074219 55.144531 129.488281 53.980469 C 129.441406 53.867188 129.367188 53.820312 129.285156 53.816406 Z M 127.605469 55.527344 C 127.65625 55.515625 127.707031 55.523438 127.753906 55.527344 C 128.066406 55.550781 128.3125 55.78125 128.347656 56.074219 C 128.402344 56.640625 128.527344 57.164062 128.640625 57.691406 C 126.613281 62.535156 127.792969 69.1875 125.140625 73.261719 C 125.007812 76.832031 124.558594 79.109375 122.4375 80.535156 C 122.351562 80.601562 122.257812 80.589844 122.15625 80.535156 C 118.773438 78.878906 115.746094 75.433594 112.792969 72.726562 C 117.386719 69.734375 113.222656 66.589844 116.5 63.15625 C 120.316406 59.125 123.671875 58.726562 127.160156 55.730469 C 127.308594 55.605469 127.457031 55.539062 127.605469 55.527344 Z M 61.699219 55.777344 C 62.117188 55.78125 62.597656 56.003906 62.945312 56.339844 C 66.339844 57.824219 66.035156 59.183594 68.6875 60.515625 C 69.253906 60.808594 70.21875 61.335938 70.964844 61.503906 C 71.304688 62.695312 71.867188 62.660156 73.113281 64.789062 C 73.414062 65.308594 74.511719 66.164062 74.609375 66.878906 C 74.6875 67.324219 74.679688 67.714844 74.644531 68.144531 C 74.609375 69.351562 74.109375 70.507812 74.777344 71.050781 C 75.324219 71.328125 74.960938 71.605469 75.949219 72.101562 C 76.449219 72.34375 76.707031 72.59375 76.441406 73.113281 C 75.652344 74.496094 74.683594 75.636719 73.800781 76.902344 C 73.570312 77.195312 73.234375 77.425781 72.894531 77.628906 C 70.976562 78.777344 69.386719 80.394531 67.664062 81.917969 C 67.558594 81.996094 67.503906 81.917969 67.429688 81.890625 C 65.78125 80.953125 65.34375 79.320312 65.125 77.089844 C 64.554688 71.144531 63.363281 76.289062 61.359375 58.582031 C 61.085938 57.78125 60.792969 56.359375 61.042969 56.03125 C 61.214844 55.855469 61.445312 55.773438 61.699219 55.777344 Z M 100.484375 67.308594 C 98.957031 70.136719 98.183594 69.871094 97.265625 70.976562 C 97.195312 71.054688 97.125 71.148438 97.054688 71.242188 C 96.988281 71.339844 96.917969 71.4375 96.851562 71.550781 C 96.777344 71.664062 96.726562 71.765625 96.699219 71.867188 C 96.699219 71.871094 96.703125 71.875 96.699219 71.878906 C 96.675781 71.976562 96.660156 72.082031 96.65625 72.164062 C 96.699219 73.085938 96.546875 73.460938 96.789062 73.765625 C 96.804688 73.789062 96.8125 73.8125 96.816406 73.839844 C 96.832031 73.871094 96.832031 73.898438 96.835938 73.925781 C 96.839844 73.988281 96.828125 74.050781 96.804688 74.09375 C 96.632812 73.984375 96.367188 73.78125 96.136719 73.578125 C 95.960938 73.417969 95.816406 73.273438 95.746094 73.144531 C 95.746094 73.140625 95.753906 73.132812 95.746094 73.128906 C 95.730469 73.085938 95.71875 73.042969 95.71875 73.011719 C 95.71875 72.914062 95.710938 72.855469 95.703125 72.800781 C 95.683594 72.589844 95.621094 72.621094 95.570312 72.386719 C 95.550781 72.269531 95.519531 72.085938 95.511719 71.761719 C 95.507812 71.605469 95.511719 71.40625 95.511719 71.167969 C 95.492188 71.015625 95.507812 70.9375 95.542969 70.875 C 95.558594 70.84375 95.578125 70.8125 95.601562 70.78125 C 95.625 70.753906 95.648438 70.726562 95.675781 70.691406 C 97.054688 69.277344 98.882812 68.339844 100.484375 67.308594 Z M 89.503906 67.652344 C 90.945312 68.632812 92.566406 69.941406 94.148438 71.257812 C 94.179688 71.296875 94.203125 71.332031 94.238281 71.375 C 94.328125 71.515625 94.394531 71.675781 94.355469 71.878906 C 94.261719 72.476562 93.976562 73.054688 93.746094 73.660156 C 93.738281 73.691406 93.722656 73.703125 93.699219 73.722656 C 93.683594 73.738281 93.667969 73.757812 93.644531 73.765625 C 93.597656 73.785156 93.539062 73.78125 93.511719 73.75 C 93.226562 73.390625 92.917969 73.023438 92.660156 72.652344 C 92.574219 72.542969 92.484375 72.417969 92.484375 72.265625 C 92.496094 72.144531 92.5 72.027344 92.5 71.925781 C 92.5 71.824219 92.496094 71.734375 92.484375 71.644531 C 92.460938 71.476562 92.410156 71.328125 92.335938 71.214844 C 92.332031 71.210938 92.335938 71.199219 92.335938 71.199219 C 92.1875 70.960938 91.925781 70.816406 91.507812 70.707031 C 91.164062 70.605469 90.867188 70.457031 90.613281 70.28125 C 90.609375 70.273438 90.605469 70.28125 90.601562 70.28125 C 90.230469 70.011719 89.964844 69.65625 89.78125 69.226562 C 89.78125 69.222656 89.769531 69.214844 89.769531 69.210938 C 89.589844 68.769531 89.507812 68.253906 89.503906 67.652344 Z M 108.605469 81.546875 C 108.996094 81.527344 109.402344 81.574219 109.808594 81.664062 C 110.207031 81.753906 110.605469 81.894531 110.945312 82.078125 C 111.054688 82.144531 111.082031 82.273438 110.964844 82.316406 C 110.390625 82.46875 109.8125 82.664062 109.226562 82.894531 C 108.933594 83.007812 108.648438 83.136719 108.351562 83.265625 C 106.878906 83.914062 105.378906 84.726562 103.886719 85.480469 C 103.726562 85.546875 103.625 85.523438 103.554688 85.433594 C 103.535156 85.398438 103.515625 85.363281 103.5 85.3125 C 103.464844 85.152344 103.472656 84.996094 103.484375 84.839844 C 103.496094 84.683594 103.523438 84.53125 103.527344 84.363281 C 103.542969 84.132812 103.683594 84.121094 103.765625 84.007812 C 104.046875 83.898438 104.28125 83.804688 104.480469 83.710938 C 105.0625 83.441406 105.300781 83.253906 105.5 83.074219 C 105.636719 82.957031 105.761719 82.847656 105.933594 82.714844 C 106.109375 82.585938 106.339844 82.441406 106.71875 82.257812 C 106.949219 82.15625 107.175781 82.058594 107.398438 81.957031 C 107.628906 81.863281 107.851562 81.769531 108.070312 81.691406 C 108.242188 81.601562 108.441406 81.550781 108.605469 81.546875 Z M 79.644531 81.855469 C 79.675781 81.855469 79.710938 81.863281 79.734375 81.855469 C 79.832031 81.890625 79.90625 81.925781 79.972656 81.957031 C 80.039062 81.996094 80.085938 82.035156 80.136719 82.078125 C 80.3125 82.230469 80.382812 82.402344 80.835938 82.617188 C 80.941406 82.667969 81.085938 82.734375 81.246094 82.792969 C 81.414062 82.847656 81.609375 82.90625 81.839844 82.972656 C 82.402344 83.152344 82.800781 83.257812 83.175781 83.398438 C 83.183594 83.402344 83.183594 83.414062 83.195312 83.414062 C 83.566406 83.5625 83.921875 83.742188 84.363281 84.054688 C 84.515625 84.160156 84.675781 84.285156 84.855469 84.425781 C 85.03125 84.566406 85.234375 84.726562 85.449219 84.914062 C 85.539062 84.984375 85.621094 85.03125 85.640625 85.164062 C 85.644531 85.207031 85.640625 85.25 85.625 85.300781 L 85.625 85.3125 C 85.613281 85.359375 85.589844 85.402344 85.570312 85.449219 C 85.511719 85.550781 85.4375 85.636719 85.359375 85.703125 C 85.332031 85.722656 85.308594 85.738281 85.285156 85.746094 C 85.265625 85.75 85.226562 85.75 85.179688 85.746094 C 85.035156 85.714844 84.921875 85.699219 84.808594 85.65625 C 84.703125 85.617188 84.613281 85.570312 84.527344 85.523438 C 84.4375 85.476562 84.363281 85.433594 84.292969 85.375 C 84.21875 85.316406 84.164062 85.257812 84.097656 85.195312 C 83.964844 85.070312 83.828125 84.941406 83.652344 84.808594 C 83.570312 84.742188 83.480469 84.679688 83.367188 84.613281 C 83.261719 84.550781 83.136719 84.488281 83 84.425781 C 82.855469 84.363281 82.742188 84.347656 82.628906 84.378906 C 82.589844 84.390625 82.546875 84.402344 82.511719 84.425781 C 82.359375 84.488281 82.214844 84.414062 82.0625 84.378906 C 81.949219 84.351562 81.820312 84.3125 81.695312 84.261719 C 81.6875 84.257812 81.683594 84.261719 81.679688 84.261719 C 80.753906 83.898438 79.601562 82.996094 79.597656 81.917969 C 79.597656 81.898438 79.609375 81.878906 79.613281 81.867188 C 79.621094 81.863281 79.632812 81.855469 79.644531 81.855469 Z M 81.617188 92.1875 C 81.863281 92.1875 82.121094 92.199219 82.378906 92.214844 C 82.636719 92.238281 82.902344 92.261719 83.175781 92.304688 C 83.378906 92.339844 83.578125 92.382812 83.789062 92.425781 C 83.855469 92.441406 83.921875 92.453125 83.992188 92.472656 C 84.117188 92.5 84.238281 92.535156 84.363281 92.574219 C 84.523438 92.617188 84.679688 92.664062 84.839844 92.722656 C 85.070312 92.804688 85.292969 92.890625 85.523438 92.988281 C 85.71875 93.074219 85.921875 93.167969 86.117188 93.269531 C 86.308594 93.375 86.503906 93.492188 86.695312 93.609375 C 86.855469 93.710938 87.011719 93.816406 87.167969 93.925781 C 87.242188 93.972656 87.3125 94.007812 87.378906 94.058594 C 87.492188 94.144531 87.605469 94.234375 87.71875 94.324219 C 87.746094 94.34375 87.765625 94.363281 87.792969 94.386719 C 87.808594 94.402344 87.835938 94.414062 87.851562 94.429688 C 87.886719 94.457031 87.925781 94.492188 87.960938 94.519531 C 88.105469 94.648438 88.253906 94.792969 88.398438 94.929688 C 88.589844 95.113281 88.773438 95.296875 88.953125 95.496094 C 88.964844 95.511719 88.980469 95.523438 89 95.539062 C 89.160156 95.726562 89.3125 95.917969 89.472656 96.117188 C 89.5625 96.242188 89.660156 96.367188 89.753906 96.492188 C 89.832031 96.597656 89.898438 96.695312 89.976562 96.804688 C 90.144531 97.050781 90.296875 97.308594 90.453125 97.578125 C 90.515625 97.683594 90.5625 97.820312 90.558594 97.933594 C 90.550781 97.972656 90.542969 98 90.523438 98.039062 C 90.375 98.351562 90.285156 98.671875 90.214844 99.03125 C 90.203125 99.082031 90.15625 99.125 90.109375 99.136719 C 90.09375 99.136719 90.0625 99.132812 90.050781 99.121094 C 89.792969 98.964844 89.554688 98.8125 89.324219 98.644531 C 89.097656 98.484375 88.890625 98.308594 88.6875 98.136719 C 88.679688 98.136719 88.671875 98.144531 88.671875 98.136719 C 88.460938 97.964844 88.273438 97.785156 88.078125 97.605469 C 86.335938 95.996094 85.109375 94.246094 82.761719 93.777344 C 82.757812 93.773438 82.753906 93.777344 82.75 93.777344 C 81.699219 93.566406 80.4375 93.621094 78.800781 94.042969 C 78.253906 94.101562 77.648438 94.101562 77.035156 94.058594 C 76.414062 94.015625 75.789062 93.929688 75.191406 93.820312 C 74.902344 93.769531 74.601562 93.707031 74.332031 93.640625 C 74.324219 93.640625 74.320312 93.644531 74.316406 93.640625 C 74.046875 93.578125 73.792969 93.503906 73.5625 93.433594 C 73.550781 93.429688 73.546875 93.433594 73.542969 93.433594 C 73.0625 93.292969 72.671875 93.140625 72.402344 93.003906 C 73.628906 93.027344 74.976562 93.011719 76.140625 92.960938 C 77.304688 92.910156 78.273438 92.832031 78.738281 92.738281 C 78.894531 92.660156 79.085938 92.59375 79.289062 92.527344 C 79.480469 92.464844 79.699219 92.398438 79.925781 92.351562 C 79.945312 92.347656 79.96875 92.351562 79.988281 92.351562 C 80.191406 92.308594 80.40625 92.273438 80.636719 92.246094 C 80.675781 92.242188 80.707031 92.234375 80.742188 92.234375 C 81.023438 92.203125 81.3125 92.191406 81.617188 92.1875 Z M 107.488281 94.175781 C 106.453125 94.238281 105.320312 94.632812 104.03125 95.75 C 102.085938 97.660156 100.445312 100.042969 99.191406 102.296875 C 99.042969 102.570312 98.996094 102.820312 99.058594 103.113281 C 100.484375 109.675781 101.097656 112.941406 101.363281 114.675781 L 102.300781 113.902344 C 101.738281 112.324219 101.449219 110.410156 101.640625 108.113281 C 102.316406 106.355469 102.667969 104.277344 102.976562 102.296875 C 104.003906 100.121094 104.109375 99.195312 105.101562 99.253906 C 105.988281 99.300781 106.910156 99.34375 107.742188 99.164062 C 108.066406 99.101562 108.332031 98.972656 108.621094 98.792969 C 110.023438 97.949219 111.21875 96.804688 112.242188 95.511719 C 112.363281 95.378906 112.4375 95.09375 112.375 94.964844 C 112.335938 94.867188 112.273438 94.8125 112.148438 94.8125 C 110.675781 94.902344 109.222656 94.074219 107.488281 94.175781 Z M 107.015625 94.335938 C 107.292969 94.332031 107.574219 94.394531 107.847656 94.503906 C 108.390625 94.71875 108.792969 95.136719 109.007812 95.628906 C 109.113281 95.882812 109.175781 96.144531 109.1875 96.417969 C 109.191406 96.695312 109.144531 96.976562 109.035156 97.25 C 108.925781 97.519531 108.765625 97.753906 108.574219 97.949219 C 107.992188 98.53125 107.085938 98.746094 106.273438 98.421875 C 106.136719 98.367188 106.007812 98.308594 105.890625 98.226562 C 105.769531 98.152344 105.675781 98.058594 105.574219 97.960938 C 104.992188 97.382812 104.777344 96.492188 105.101562 95.679688 C 105.144531 95.566406 105.191406 95.472656 105.25 95.378906 C 105.257812 95.367188 105.269531 95.359375 105.28125 95.347656 C 105.304688 95.308594 105.324219 95.269531 105.351562 95.230469 C 105.410156 95.15625 105.472656 95.089844 105.53125 95.019531 L 105.589844 94.964844 C 105.679688 94.875 105.769531 94.785156 105.875 94.710938 C 105.957031 94.652344 106.050781 94.609375 106.140625 94.5625 C 106.15625 94.554688 106.167969 94.554688 106.183594 94.546875 C 106.210938 94.539062 106.230469 94.515625 106.261719 94.503906 C 106.375 94.457031 106.492188 94.421875 106.617188 94.402344 C 106.746094 94.371094 106.882812 94.34375 107.015625 94.335938 Z M 83.328125 94.371094 C 83.605469 94.363281 83.867188 94.410156 84.144531 94.519531 C 84.277344 94.570312 84.410156 94.632812 84.527344 94.710938 C 84.648438 94.789062 84.742188 94.878906 84.839844 94.980469 C 84.941406 95.082031 85.027344 95.175781 85.109375 95.289062 C 85.261719 95.515625 85.375 95.769531 85.4375 96.035156 C 85.523438 96.425781 85.492188 96.855469 85.332031 97.265625 C 85.273438 97.402344 85.210938 97.515625 85.136719 97.636719 C 85.136719 97.640625 85.144531 97.644531 85.136719 97.648438 C 84.828125 98.113281 84.34375 98.425781 83.816406 98.542969 C 83.550781 98.597656 83.273438 98.601562 83 98.554688 C 82.859375 98.53125 82.71875 98.488281 82.585938 98.4375 C 82.449219 98.378906 82.316406 98.320312 82.199219 98.242188 C 81.964844 98.089844 81.773438 97.890625 81.617188 97.660156 C 81.234375 97.101562 81.128906 96.371094 81.398438 95.691406 C 81.449219 95.558594 81.527344 95.433594 81.605469 95.320312 C 81.675781 95.210938 81.742188 95.113281 81.824219 95.019531 C 81.84375 95.003906 81.867188 94.996094 81.886719 94.980469 C 81.980469 94.886719 82.0625 94.792969 82.167969 94.726562 C 82.253906 94.664062 82.34375 94.621094 82.433594 94.574219 C 82.4375 94.574219 82.445312 94.566406 82.449219 94.5625 C 82.535156 94.523438 82.628906 94.503906 82.71875 94.476562 C 82.804688 94.449219 82.894531 94.414062 82.984375 94.402344 L 83.015625 94.402344 C 83.113281 94.378906 83.222656 94.371094 83.328125 94.371094 Z M 76.585938 95.40625 C 76.640625 95.40625 76.695312 95.417969 76.75 95.425781 C 76.757812 95.425781 76.773438 95.421875 76.78125 95.425781 C 76.875 95.433594 76.972656 95.46875 77.078125 95.511719 C 77.191406 95.558594 77.308594 95.613281 77.433594 95.691406 C 77.558594 95.769531 77.691406 95.855469 77.835938 95.957031 L 77.878906 95.988281 C 78.003906 96.082031 78.125 96.175781 78.265625 96.285156 C 78.410156 96.398438 78.546875 96.5 78.710938 96.628906 C 79.007812 96.859375 79.339844 97.117188 79.6875 97.367188 C 79.863281 97.496094 80.042969 97.613281 80.238281 97.738281 C 80.386719 97.832031 80.539062 97.945312 80.703125 98.039062 C 80.765625 98.078125 80.839844 98.113281 80.90625 98.152344 C 81.089844 98.257812 81.285156 98.355469 81.484375 98.453125 C 81.679688 98.546875 81.882812 98.632812 82.089844 98.71875 C 82.160156 98.746094 82.21875 98.785156 82.289062 98.808594 C 82.496094 98.886719 82.714844 98.949219 82.9375 99.015625 C 83.203125 99.09375 83.476562 99.167969 83.753906 99.226562 C 84.039062 99.277344 84.332031 99.316406 84.632812 99.339844 C 84.9375 99.367188 85.253906 99.386719 85.582031 99.386719 C 85.644531 99.386719 85.691406 99.402344 85.730469 99.429688 C 85.769531 99.453125 85.796875 99.488281 85.804688 99.546875 C 85.816406 100.0625 85.347656 100.242188 84.839844 100.273438 C 84.539062 100.28125 84.238281 100.269531 83.933594 100.261719 C 83.042969 100.238281 82.15625 100.167969 81.261719 100.023438 C 81.167969 100.011719 81.085938 99.992188 80.996094 99.953125 C 80.910156 99.914062 80.835938 99.863281 80.742188 99.800781 C 80.46875 99.613281 80.175781 99.402344 79.882812 99.164062 C 79.589844 98.925781 79.308594 98.679688 79.039062 98.4375 C 78.757812 98.191406 78.5 97.960938 78.277344 97.753906 C 78.058594 97.550781 77.882812 97.375 77.761719 97.25 C 77.632812 97.136719 77.53125 97.042969 77.445312 96.949219 C 77.367188 96.867188 77.296875 96.78125 77.238281 96.714844 C 77.128906 96.582031 77.082031 96.492188 77.019531 96.40625 C 76.988281 96.363281 76.953125 96.324219 76.914062 96.285156 C 76.796875 96.160156 76.605469 96.027344 76.175781 95.796875 C 76.121094 95.773438 76.089844 95.753906 76.082031 95.722656 C 76.078125 95.699219 76.078125 95.6875 76.097656 95.664062 C 76.113281 95.640625 76.125 95.609375 76.152344 95.589844 C 76.199219 95.550781 76.261719 95.519531 76.308594 95.496094 C 76.351562 95.472656 76.394531 95.449219 76.441406 95.4375 C 76.488281 95.425781 76.535156 95.410156 76.585938 95.40625 Z M 76.585938 95.40625 "/>
</g>
</svg>
