<?xml version="1.0" encoding="UTF-8"?>
<svg xmlns="http://www.w3.org/2000/svg" xmlns:xlink="http://www.w3.org/1999/xlink" width="250pt" height="250pt" viewBox="0 0 250 250" version="1.1">
<g id="surface1">
<path style="fill-rule:nonzero;fill:rgb(100%,100%,100%);fill-opacity:1;stroke-width:21.127;stroke-linecap:butt;stroke-linejoin:miter;stroke:rgb(0%,32.54902%,62.745098%);stroke-opacity:1;stroke-miterlimit:4;" d="M 706.967222 420.944885 C 706.967222 647.018597 523.711497 830.274322 297.637785 830.274322 C 71.564073 830.274322 -111.704807 647.018597 -111.704807 420.944885 C -111.704807 194.871173 71.564073 11.615448 297.637785 11.615448 C 523.711497 11.602293 706.967222 194.871173 706.967222 420.944885 Z M 706.967222 420.944885 " transform="matrix(0.296951,0,0,0.296951,36.616165,0)"/>
<path style=" stroke:none;fill-rule:evenodd;fill:rgb(0%,32.54902%,62.745098%);fill-opacity:1;" d="M 12.597656 126.4375 C 11.8125 64.371094 61.507812 13.40625 123.570312 12.617188 C 185.636719 11.832031 236.601562 61.527344 237.390625 123.589844 C 238.175781 185.652344 188.480469 236.621094 126.417969 237.40625 C 64.355469 238.191406 13.386719 188.5 12.597656 126.4375 Z M 123.554688 11.214844 C 60.714844 12.011719 10.402344 63.617188 11.195312 126.453125 C 11.992188 189.292969 63.597656 239.605469 126.433594 238.8125 C 189.273438 238.015625 239.585938 186.410156 238.792969 123.574219 C 237.996094 60.734375 186.390625 10.421875 123.554688 11.214844 Z M 123.554688 11.214844 "/>
<path style=" stroke:none;fill-rule:evenodd;fill:rgb(0%,32.54902%,62.745098%);fill-opacity:1;" d="M 120.871094 50.304688 C 107.074219 50.269531 91.042969 55.742188 80.265625 64.660156 C 80.230469 64.683594 80.230469 64.78125 80.304688 64.820312 C 86.464844 67.261719 90.691406 70.503906 97.277344 74.191406 C 97.515625 74.324219 97.597656 74.265625 97.648438 74.054688 C 100.835938 57.871094 120.589844 62.359375 122.433594 50.558594 C 122.355469 50.480469 122.367188 50.332031 122.199219 50.324219 C 121.761719 50.3125 121.316406 50.304688 120.871094 50.304688 Z M 129.089844 50.324219 C 128.953125 50.324219 128.910156 50.378906 128.914062 50.597656 C 128.085938 52.675781 130.519531 54.839844 131.941406 56.242188 C 132.078125 56.371094 132.300781 56.519531 132.472656 56.59375 C 141.292969 60.183594 151.050781 62.835938 153.191406 72.980469 C 153.234375 73.136719 153.265625 73.238281 153.429688 73.097656 C 158.128906 69.980469 162.789062 66.816406 167.546875 63.816406 C 167.792969 63.714844 167.703125 63.605469 167.546875 63.507812 C 156.796875 55.863281 143.367188 50.886719 129.089844 50.324219 Z M 74.089844 69.796875 C 65.492188 77.425781 58.113281 87.398438 54.269531 98.605469 C 54.226562 98.714844 54.292969 98.765625 54.445312 98.78125 C 62.859375 99.539062 65.609375 88.566406 72.058594 84.484375 C 72.144531 84.433594 72.222656 84.390625 72.21875 84.285156 C 71.761719 79.285156 71.539062 75.070312 74.089844 69.796875 Z M 177.902344 72.199219 C 178.378906 76.078125 178.015625 79.761719 176.984375 83.347656 C 176.941406 83.515625 176.945312 83.648438 177.140625 83.777344 C 183.359375 87.105469 186.726562 96.816406 193.914062 97.199219 C 194.003906 97.238281 194.140625 97.242188 194.089844 97.125 C 191.59375 88.457031 184.421875 78.199219 177.902344 72.199219 Z M 196.398438 102.804688 C 187.578125 111.648438 201.890625 126.464844 182.472656 134.734375 C 180.757812 135.242188 179.113281 135.839844 177.5625 135.847656 C 173.246094 135.867188 167.101562 132.574219 167.140625 139.128906 C 167.140625 139.246094 167.246094 139.328125 167.390625 139.386719 C 173.390625 141.953125 181.496094 147.523438 181.625 156.105469 C 181.921875 166.335938 171.152344 173.222656 172.859375 182.941406 C 195.871094 163.039062 205.335938 133.660156 196.398438 102.804688 Z M 52.546875 104.265625 C 52.472656 104.285156 52.417969 104.367188 52.351562 104.523438 C 43.636719 128.335938 52.199219 165.355469 78.929688 184.910156 C 78.9375 184.402344 79.230469 183.351562 79.539062 182.644531 C 79.648438 182.371094 79.632812 182.023438 79.539062 181.691406 C 78.558594 177.382812 75.988281 173.042969 73.542969 168.816406 C 65.113281 154.820312 69.792969 145.222656 83.40625 138.996094 C 83.582031 138.941406 83.621094 138.84375 83.523438 138.660156 C 83.3125 138.199219 83.105469 137.742188 82.902344 137.273438 C 82.839844 137.148438 82.902344 136.898438 82.589844 136.941406 C 79.539062 137.320312 76.101562 137.59375 72.996094 137.453125 C 68.320312 136.410156 63.859375 134.546875 60.496094 129.597656 C 54.480469 121.199219 62.71875 109.898438 52.78125 104.328125 C 52.699219 104.28125 52.621094 104.246094 52.546875 104.265625 Z M 178.566406 138.683594 C 178.789062 138.683594 179.023438 138.71875 179.246094 138.78125 C 182.265625 139.328125 186.828125 141.105469 189.539062 144.460938 C 189.714844 144.675781 189.636719 144.859375 189.363281 144.835938 C 185.007812 144.703125 180.113281 144.222656 176.726562 141.554688 C 176.246094 141.171875 175.804688 140.796875 176.140625 139.890625 C 176.390625 139.316406 177.191406 138.878906 177.859375 138.757812 C 178.101562 138.71875 178.332031 138.679688 178.566406 138.683594 Z M 70.808594 140.460938 C 71.054688 140.453125 71.292969 140.460938 71.535156 140.480469 C 71.738281 140.503906 71.941406 140.503906 72.078125 140.636719 C 72.914062 141.632812 72.75 143.03125 71.183594 144.109375 C 67.878906 146.226562 64.046875 146.347656 60.519531 146.496094 C 60.378906 146.503906 60.140625 146.351562 60.382812 146.125 C 63.597656 143.179688 67.15625 140.496094 70.808594 140.460938 Z M 130.558594 180.597656 C 130.515625 180.589844 130.464844 180.601562 130.421875 180.636719 C 127.714844 181.921875 123.460938 182.546875 121.066406 181.203125 C 120.777344 181.058594 120.609375 181.167969 120.496094 181.332031 C 116.195312 188.613281 105.976562 188.441406 98.722656 186.59375 C 93.332031 185.378906 88.058594 183.839844 83.703125 188.152344 C 106.386719 204.511719 141.347656 205.019531 167.589844 187.023438 C 162.640625 184.6875 158.144531 186.367188 152.703125 187.628906 C 146.542969 189.058594 137.890625 190.355469 130.910156 180.753906 C 130.792969 180.722656 130.683594 180.601562 130.558594 180.597656 Z M 126.027344 182.234375 C 126.089844 182.242188 126.160156 182.246094 126.242188 182.253906 C 127.027344 182.347656 127.476562 182.746094 127.957031 183.289062 C 128.191406 183.597656 128.273438 183.953125 128.234375 184.328125 C 128.105469 187.691406 127.527344 191.089844 126.394531 194.035156 C 126.371094 194.171875 126.273438 194.203125 126.222656 194.035156 C 124.910156 189.890625 122.667969 185.699219 125.496094 182.433594 C 125.675781 182.277344 125.828125 182.226562 126.027344 182.234375 Z M 126.027344 182.234375 "/>
<path style=" stroke:none;fill-rule:evenodd;fill:rgb(0%,32.54902%,62.745098%);fill-opacity:1;" d="M 133.292969 18.976562 C 133.964844 19.867188 134.640625 20.855469 134.402344 21.925781 C 133.535156 26.8125 132.601562 31.6875 131.609375 36.554688 C 131.4375 37.640625 130.644531 38.109375 129.851562 38.839844 C 135.199219 39.808594 145.195312 41.699219 150.558594 42.707031 C 150.417969 40.589844 152.035156 39.351562 152.683594 37.433594 C 150.902344 38.679688 148.628906 39.136719 146.515625 38.683594 C 144.3125 38.269531 138.867188 37.183594 136.671875 36.730469 C 137.027344 35.027344 137.253906 33.292969 137.648438 31.59375 C 139.785156 31.96875 143.226562 32.78125 145.359375 33.039062 C 147.175781 33.46875 148.550781 30.945312 149.539062 29.757812 C 148.847656 29.914062 147.539062 29.996094 146.828125 29.835938 C 144.589844 29.398438 140.566406 28.550781 138.328125 28.097656 C 138.527344 26.476562 138.871094 24.875 139.210938 23.292969 C 143.046875 24.300781 151.066406 24.675781 153.914062 27.902344 C 154.011719 26.121094 153.003906 23.910156 154.015625 22.726562 C 148.714844 21.699219 138.59375 19.964844 133.292969 18.976562 Z M 130.734375 19.054688 C 125.628906 19.078125 115.839844 19.617188 110.734375 19.679688 C 111.828125 21.476562 110.203125 23.054688 110.164062 24.855469 C 111.894531 23.285156 116.21875 22.8125 118.464844 22.882812 C 118.457031 27.808594 118.964844 32.757812 119.035156 37.667969 C 119.066406 38.597656 118.339844 39.1875 117.746094 39.5625 C 119.96875 39.539062 123.476562 39.265625 125.558594 39.230469 C 124.535156 38.289062 124.015625 38.210938 123.996094 36.886719 C 123.632812 32.351562 123.453125 27.066406 123.328125 22.550781 C 125.628906 22.382812 129.851562 22.796875 131.730469 23.9375 C 131.71875 21.953125 129.800781 19.980469 130.734375 19.054688 Z M 108.390625 20.382812 C 105.128906 21.09375 97.859375 21.605469 95.046875 23.742188 C 91.6875 26.074219 90.910156 31.253906 95.265625 33.527344 C 98.011719 34.648438 103.214844 33.429688 105.925781 33.644531 C 107.792969 33.722656 108.578125 36.304688 107.351562 37.570312 C 104.703125 39.925781 97.507812 39.925781 94.367188 38.976562 C 95.136719 40.777344 95.996094 42.332031 96.8125 44.113281 C 97.878906 43.441406 99.777344 43.273438 100.984375 43.058594 C 103.5625 42.683594 109.660156 41.03125 111.378906 38.957031 C 113.433594 36.542969 113.535156 33.042969 111.535156 30.832031 C 109.734375 28.859375 104.160156 29.210938 101.789062 29.367188 C 100.441406 29.367188 99.324219 29.84375 98.039062 29.210938 C 96.949219 28.457031 97.011719 26.582031 98.234375 25.949219 C 100.585938 24.703125 105.914062 24.511719 108.371094 25.519531 C 108.230469 23.796875 108.449219 22.101562 108.390625 20.382812 Z M 160.964844 24.777344 C 161.402344 25.863281 161.660156 26.890625 161.140625 27.921875 C 159.203125 32.09375 157.003906 36.238281 154.953125 40.441406 C 154.378906 41.667969 153.640625 42.445312 152.277344 42.960938 C 154.097656 43.890625 157.21875 45.449219 159.050781 46.378906 C 158.28125 43.570312 160.1875 41.046875 161.277344 38.78125 C 162.328125 39.355469 165.140625 40.667969 165.828125 41.808594 C 166.753906 43.371094 166.976562 44.972656 167.175781 46.589844 C 167.265625 48.054688 167.382812 49.160156 165.871094 49.679688 C 167.996094 50.542969 171.332031 52.324219 173.308594 53.273438 C 171.742188 50.042969 172.707031 45.648438 170.617188 42.472656 C 171.976562 42.53125 174.265625 42.761719 175.714844 41.867188 C 178.332031 40.332031 178.972656 37.902344 178.078125 34.699219 C 177.585938 33.011719 175.929688 32.050781 174.519531 31.378906 C 171.160156 29.714844 164.328125 26.417969 160.964844 24.777344 Z M 84.382812 26.925781 C 79.699219 29.554688 70.691406 34.058594 66.066406 36.769531 C 67.273438 37.085938 68.109375 37.539062 68.683594 38.585938 C 70.996094 42.738281 73.304688 46.890625 75.597656 51.046875 C 76.191406 52.078125 76.007812 53.316406 75.539062 54.464844 C 80.347656 51.792969 89.347656 47.113281 94.171875 44.464844 C 92.664062 43.609375 93.621094 40.757812 93.015625 38.878906 C 92.539062 40.519531 90.847656 42.007812 89.46875 43.019531 C 87.226562 44.523438 81.972656 47.199219 79.640625 48.527344 C 78.792969 47.023438 77.929688 45.480469 77.125 43.9375 C 78.941406 42.808594 83.15625 40.945312 84.9375 39.757812 C 85.976562 38.453125 85.367188 36.566406 85.597656 35.03125 C 85.140625 35.582031 84.546875 36.082031 83.898438 36.417969 C 81.941406 37.503906 77.65625 39.878906 75.675781 40.949219 C 74.921875 39.523438 74.023438 38.171875 73.371094 36.691406 C 76.992188 35.050781 83.484375 30.652344 87.609375 30.890625 C 86.578125 29.386719 84.921875 28.707031 84.382812 26.925781 Z M 165.203125 30.714844 C 166.988281 31.609375 169.613281 32.773438 171.238281 33.664062 C 175.546875 35.902344 172.484375 40.585938 169.363281 38.820312 C 167.582031 38.226562 164.464844 36.464844 162.726562 35.753906 C 163.476562 34.011719 164.433594 32.453125 165.203125 30.714844 Z M 61.832031 39.914062 C 61.335938 40.625 60.6875 41.277344 59.914062 41.691406 C 57.339844 42.890625 52.722656 47.054688 51.617188 49.679688 C 50.070312 52.683594 50.089844 55.449219 51.90625 58.957031 C 53.980469 63.09375 56.921875 65.011719 61.417969 65.011719 C 65.886719 64.734375 69.910156 60.820312 71.75 58.410156 C 72.761719 57.242188 73.746094 55.957031 75.230469 55.304688 C 73.984375 53.921875 72.671875 52.609375 71.398438 51.242188 C 70.945312 52.902344 70.144531 54.332031 69.054688 55.714844 C 67.449219 57.539062 64.957031 60.402344 62.121094 60.265625 C 59.289062 60.125 58.386719 58.777344 57.121094 57.394531 C 55.859375 56.015625 54.988281 54.402344 55.210938 51.925781 C 55.429688 49.449219 60.335938 44.875 63.882812 44.738281 C 63.070312 43.195312 62.644531 41.476562 61.832031 39.914062 Z M 44.585938 56.570312 C 43.292969 58.242188 40.992188 61.140625 39.625 62.75 C 40.894531 62.5625 42.054688 62.667969 43.023438 63.429688 C 46.742188 66.324219 50.457031 69.25 54.152344 72.160156 C 55.105469 72.878906 55.535156 73.957031 55.65625 75.183594 C 57.027344 73.554688 59.230469 70.699219 60.558594 69.109375 C 59.410156 69.261719 58.285156 69.324219 57.398438 68.605469 C 53.617188 65.691406 49.902344 62.730469 46.148438 59.796875 C 45.117188 59.015625 44.546875 57.957031 44.585938 56.570312 Z M 35.757812 67.785156 C 33.398438 72.628906 28.523438 81.628906 26.207031 86.472656 C 27.492188 85.960938 28.457031 86.054688 29.625 86.648438 C 33.816406 88.746094 38.027344 90.785156 42.21875 92.859375 C 43.25 93.378906 44.148438 94.410156 44.5625 95.480469 C 46.902344 90.554688 51.210938 81.84375 53.902344 76.960938 C 53.347656 76.960938 52.792969 76.496094 52.398438 76.105469 C 51.289062 75.054688 50.730469 73.855469 49.605469 72.824219 C 49.917969 74.777344 49.636719 77.117188 48.78125 79.015625 C 47.792969 81.128906 45.164062 86.253906 44.175781 88.371094 C 42.53125 87.816406 41.265625 86.871094 39.683594 86.160156 C 40.472656 84.265625 42.816406 79.972656 43.625 78.097656 C 43.636719 77 42.328125 75.144531 41.402344 73.816406 C 41.359375 74.527344 41.054688 75.253906 40.714844 75.910156 C 39.707031 77.96875 37.429688 82.523438 36.402344 84.558594 C 34.957031 83.828125 33.078125 83.121094 31.636719 82.410156 C 32.644531 80.355469 35.195312 75.210938 36.246094 73.175781 C 37.054688 71.574219 38.371094 70.234375 39.996094 69.425781 C 38.3125 68.746094 37.199219 68.953125 35.757812 67.785156 Z M 38.78125 94.714844 C 39.457031 95.804688 39.601562 97.648438 39.644531 98.953125 C 39.820312 101.410156 38.378906 106.074219 38 108.46875 C 33.472656 107.578125 28.917969 106.488281 24.410156 105.496094 C 23.164062 105.261719 22.660156 104.257812 21.929688 103.191406 C 21.453125 105.230469 20.644531 109.085938 20.210938 111.144531 C 21.121094 110.472656 21.796875 109.949219 22.867188 110.1875 C 27.691406 111.199219 32.492188 112.257812 37.300781 113.347656 C 38.40625 113.585938 39.519531 114.429688 40.089844 115.476562 C 41.121094 110.808594 43.046875 102.277344 44.054688 97.585938 C 43.5625 97.628906 43.046875 97.710938 42.613281 97.4375 C 41.207031 96.660156 40.207031 95.449219 38.78125 94.714844 Z M 38.78125 94.714844 "/>
<path style=" stroke:none;fill-rule:evenodd;fill:rgb(0%,32.54902%,62.745098%);fill-opacity:1;" d="M 38.839844 134.71875 C 38.160156 135.691406 37.1875 136.492188 36.027344 136.710938 C 31.613281 137.960938 26.902344 138.917969 21.867188 140.128906 C 20.855469 140.492188 20.246094 140.066406 19.289062 139.328125 C 19.734375 141.371094 20.425781 144.703125 20.910156 146.746094 C 22.703125 144.234375 26.042969 144.328125 28.683594 143.449219 C 29.308594 145.566406 30.046875 150.003906 30.753906 152.078125 C 31.863281 153.230469 33.703125 153.390625 35.148438 153.898438 C 34.773438 153.332031 34.066406 152.132812 33.957031 151.453125 C 33.445312 149.214844 32.476562 144.941406 31.964844 142.722656 C 33.652344 142.347656 35.308594 141.847656 37.023438 141.609375 C 37.929688 145.152344 40.054688 151.746094 38.410156 155.128906 C 40.132812 154.578125 41.554688 152.675781 43.097656 153.078125 C 42.082031 148.320312 39.777344 139.515625 38.839844 134.71875 Z M 39.074219 156.378906 C 38.511719 156.359375 37.941406 156.410156 37.375 156.472656 C 33.550781 157.292969 30 159.175781 28.371094 163.171875 C 26.226562 168.742188 30.460938 177.308594 36.144531 179.402344 C 39.796875 180.710938 43.410156 179.730469 46.125 177.703125 C 48.644531 175.980469 50.351562 173.09375 50.285156 169.230469 C 50.125 164.867188 47.6875 160.539062 44.132812 158.078125 C 42.441406 156.890625 40.765625 156.421875 39.074219 156.378906 Z M 38.917969 161.242188 C 41.027344 161.230469 43.167969 161.765625 44.621094 163.933594 C 46.425781 166.179688 46.972656 169.332031 45.695312 171.222656 C 43.878906 173.609375 40.949219 175.035156 37.863281 174.910156 C 34.507812 174.792969 31.109375 170.496094 32.101562 166.378906 C 33.042969 163.023438 36.851562 161.410156 38.917969 161.242188 Z M 52.140625 177.472656 C 51.316406 177.496094 50.511719 177.660156 49.71875 177.960938 C 45.902344 179.367188 43.101562 181.828125 41.984375 186.046875 C 40.417969 191.816406 46.726562 199.390625 52.6875 200.460938 C 56.511719 201.105469 59.898438 199.722656 62.214844 197.253906 C 64.398438 195.113281 65.753906 191.917969 65.011719 188.117188 C 64.089844 183.847656 60.640625 180.191406 56.710938 178.390625 C 54.976562 177.746094 53.511719 177.421875 52.140625 177.472656 Z M 54.035156 182.140625 C 55.703125 182.148438 57.21875 182.816406 58.351562 183.996094 C 60.441406 185.925781 61.425781 188.296875 60.460938 190.808594 C 59.132812 193.761719 56.664062 195.667969 53.605469 196.085938 C 50.28125 196.546875 45.984375 192.148438 46.4375 188.523438 C 46.976562 185.195312 49.148438 183.839844 50.929688 182.898438 C 51.984375 182.382812 53.035156 182.136719 54.035156 182.140625 Z M 68.878906 190.753906 C 68.847656 192.652344 66.898438 192.089844 65.359375 194.484375 C 67.671875 194.253906 71.546875 196.3125 73.355469 197.664062 C 70.667969 201.746094 67.875 205.734375 65.148438 209.773438 C 64.640625 210.621094 63.753906 210.714844 62.824219 210.789062 C 64.523438 211.964844 67.609375 214.027344 69.308594 215.203125 C 68.972656 213.847656 69.097656 212.722656 69.835938 211.609375 C 72.242188 208.054688 74.679688 204.503906 77.078125 200.929688 C 77.214844 200.785156 77.328125 200.449219 77.59375 200.535156 C 79.5625 201.601562 82.632812 204.277344 83.328125 206.433594 C 84.15625 204.84375 83.996094 202.308594 85.515625 201.6875 C 81.332031 198.808594 73.078125 193.570312 68.878906 190.753906 Z M 86.554688 202.566406 C 87.167969 203.679688 87.007812 204.953125 86.652344 206.121094 C 85.285156 210.695312 83.546875 214.808594 82.175781 219.367188 C 81.871094 220.472656 81.179688 221.128906 79.777344 221.453125 C 84.117188 222.828125 89.152344 224.664062 93.742188 226.066406 C 98.492188 227.605469 102.757812 226.457031 103.273438 221.472656 C 103.574219 218.609375 100.523438 217.285156 99.328125 216.648438 C 102.472656 217.035156 104.585938 215.359375 104.753906 212.410156 C 105.023438 210.308594 103.109375 208.015625 98.78125 206.609375 C 95.671875 205.597656 89.683594 203.441406 86.554688 202.566406 Z M 152.296875 206.160156 C 150.28125 206.679688 146.914062 208.085938 144.933594 208.757812 C 146.039062 209.234375 146.800781 209.558594 147.175781 210.671875 C 148.589844 214.964844 150.296875 218.972656 151.765625 223.253906 C 152.164062 224.601562 152.660156 226.128906 151.921875 227.453125 C 156.484375 226.046875 164.398438 223.191406 168.917969 221.691406 C 168.660156 221.316406 168.265625 221.007812 168.289062 220.535156 C 168.175781 218.921875 168.585938 217.613281 168.449219 215.984375 C 167.402344 218.15625 165.105469 219.273438 162.765625 220.183594 C 161.445312 220.609375 157.738281 222.257812 156.433594 222.390625 C 154.988281 218.046875 153.269531 213.472656 151.808594 209.128906 C 151.410156 208.003906 151.703125 207.214844 152.296875 206.160156 Z M 90.855469 207.582031 C 92.523438 208.171875 97.277344 209.257812 98.898438 209.933594 C 101.160156 210.871094 99.691406 214.921875 97.332031 214.402344 C 95.679688 214.132812 91.035156 212.832031 89.484375 212.25 C 89.921875 210.695312 90.375 209.128906 90.855469 207.582031 Z M 112.976562 209.933594 C 113.121094 210.234375 113.035156 210.964844 112.785156 211.296875 L 104.292969 225.671875 C 103.535156 226.902344 102.820312 227.464844 101.765625 228.273438 C 103.703125 228.570312 107.054688 229.535156 108.996094 229.910156 C 108.371094 228.546875 108.425781 226.859375 109.441406 225.558594 C 112.441406 225.824219 118.046875 226.230469 121.027344 226.589844 C 121.632812 228.007812 122.40625 229.710938 121.027344 231.003906 C 123.003906 230.988281 126.445312 230.914062 128.371094 231.046875 C 127.503906 230.015625 126.660156 228.980469 126.296875 227.644531 C 125.394531 224.984375 122.039062 215.101562 120.984375 212.039062 C 120.804688 211.484375 121.046875 210.796875 121.066406 210.734375 Z M 135.421875 210.046875 C 133.253906 210.402344 129.566406 210.828125 127.492188 211.085938 C 128.476562 211.777344 129.207031 212.203125 129.347656 213.371094 C 129.859375 217.859375 130.765625 222.15625 131.339844 226.648438 C 131.460938 228.050781 131.484375 229.859375 130.496094 231.003906 C 135.25 230.554688 143.992188 229.132812 148.722656 228.582031 C 148.539062 228.164062 148.234375 227.769531 148.351562 227.316406 C 148.566406 225.710938 149.167969 224.328125 149.367188 222.703125 C 147.796875 224.496094 145.527344 225.460938 143.058594 225.890625 C 141.640625 226.128906 137.507812 226.796875 136.222656 226.765625 C 135.683594 222.214844 134.898438 217.410156 134.34375 212.859375 C 134.191406 211.671875 134.628906 210.960938 135.421875 210.046875 Z M 116.453125 213.390625 L 119.917969 222.820312 C 117.753906 222.695312 113.617188 222.441406 111.453125 222.195312 Z M 88.722656 215.246094 C 90.707031 216.023438 94.003906 217.140625 95.773438 217.824219 C 99.640625 219.171875 98.621094 224.359375 93.933594 222.746094 C 91.828125 222.078125 89.023438 221.203125 87.023438 220.441406 C 87.503906 218.738281 88.242188 216.964844 88.722656 215.246094 Z M 88.722656 215.246094 "/>
<path style=" stroke:none;fill-rule:evenodd;fill:rgb(0%,32.54902%,62.745098%);fill-opacity:1;" d="M 192.527344 46.453125 C 189.464844 46.324219 187.441406 47.167969 185.300781 48.976562 C 182.910156 51.152344 181.277344 53.679688 181.296875 57.472656 C 181.375 60.460938 184.640625 65.152344 188.566406 67.628906 C 189.671875 68.445312 191.421875 69.464844 191.589844 70.828125 C 192.890625 69.5 194.246094 68.1875 195.578125 66.941406 C 192.390625 65.984375 186.996094 62.890625 186.21875 59.328125 C 185.726562 56.492188 186.421875 55.566406 187.628906 54.015625 C 189.878906 51.296875 192.160156 50.316406 195.578125 51.257812 C 198.632812 52.476562 201.371094 56.304688 201.609375 59.09375 C 203.195312 58.261719 204.703125 57.597656 206.316406 56.789062 C 205.035156 55.996094 204.46875 55.046875 203.605469 53.898438 C 201.726562 51.160156 198.195312 47.257812 193.914062 46.574219 C 193.433594 46.515625 192.964844 46.476562 192.527344 46.453125 Z M 209.382812 61.046875 C 209.320312 63.046875 208.265625 63.667969 206.828125 64.734375 C 203.339844 67.121094 200.035156 69.554688 196.554688 71.867188 C 195.566406 72.496094 194.285156 73.304688 192.878906 72.628906 C 194.007812 74.386719 196.246094 77.355469 197.390625 79.09375 C 197.511719 77.300781 198.472656 76.484375 199.558594 75.773438 C 203.320312 73.261719 206.859375 70.550781 210.632812 68.0625 C 211.722656 67.324219 212.347656 67.003906 213.796875 67.492188 C 212.671875 65.773438 210.511719 62.765625 209.382812 61.046875 Z M 216.0625 70.460938 C 215.019531 72.035156 212.707031 71.078125 211.066406 71.710938 C 213.0625 72.835938 215.269531 76.445312 216.101562 78.566406 C 211.632812 80.660156 207.9375 82.539062 203.464844 84.660156 C 202.613281 85.089844 201.273438 84.816406 200.402344 84.484375 C 201.324219 86.359375 202.871094 89.65625 203.796875 91.515625 C 204.289062 90.074219 205.734375 88.847656 207.078125 88.253906 C 211.078125 86.4375 214.371094 84.679688 218.410156 82.960938 C 219.433594 84.976562 221.152344 88.773438 220.578125 91.046875 C 222.121094 90.117188 222.878906 88.085938 224.640625 88.273438 C 222.5 83.640625 218.222656 75.085938 216.0625 70.460938 Z M 225.769531 90.5 C 225.347656 92.441406 223.582031 93.558594 222.488281 95.007812 C 220.300781 97.566406 217.671875 100.445312 215.109375 103.035156 C 214.496094 103.609375 212.976562 103.789062 212.058594 104 C 210.152344 104.273438 209.261719 104.496094 207.800781 103.273438 C 208.261719 105.328125 209.007812 108.992188 209.421875 111.046875 C 210.234375 109.816406 211.101562 109.089844 212.703125 108.683594 C 214.128906 108.429688 215.390625 107.878906 216.414062 108.328125 C 221.089844 110.871094 229.867188 114.5 230.964844 115.636719 L 229.363281 107.960938 C 228.84375 108.710938 228.234375 109.074219 227.609375 108.835938 C 224.804688 107.75 221.472656 106.199219 219.089844 105.285156 C 220.832031 103.261719 222.871094 101.304688 224.714844 99.386719 C 225.515625 98.410156 226.613281 98.023438 227.589844 98.972656 Z M 225.769531 90.5 "/>
<path style=" stroke:none;fill-rule:evenodd;fill:rgb(0%,32.54902%,62.745098%);fill-opacity:1;" d="M 214.675781 135.792969 C 213.789062 135.816406 212.78125 136.132812 211.707031 136.847656 C 210.179688 138.191406 209.613281 140.296875 209.109375 142.179688 C 208.421875 145.359375 206.710938 151.894531 206.082031 155.085938 C 207.140625 154.238281 208.050781 154.140625 209.246094 154.402344 C 213.914062 155.410156 218.5625 156.464844 223.214844 157.472656 C 224.339844 157.691406 225.171875 158.570312 225.808594 159.5625 C 226.496094 155.136719 229.246094 146.140625 229.171875 141.628906 C 229.082031 137.929688 225.652344 135.566406 222.371094 136.335938 C 220.507812 136.859375 219.464844 139.007812 219.050781 140.515625 C 219.046875 138.273438 217.339844 135.722656 214.675781 135.792969 Z M 214.695312 141.160156 C 216.0625 141.167969 217.328125 142.429688 216.964844 144.015625 C 216.601562 145.667969 215.945312 149.140625 215.539062 150.773438 C 213.953125 150.453125 212.300781 150.097656 210.734375 149.734375 C 211.183594 148.03125 211.609375 145.609375 212.058594 143.878906 C 212.507812 141.914062 213.632812 141.160156 214.695312 141.160156 Z M 223.253906 141.453125 C 224.679688 141.503906 225.984375 142.933594 225.671875 144.675781 C 225.226562 146.773438 224.417969 150.640625 224.035156 152.703125 C 222.300781 152.355469 220.507812 151.933594 218.761719 151.589844 C 219.203125 149.492188 219.882812 146.464844 220.441406 144.367188 C 220.957031 142.214844 222.140625 141.417969 223.253906 141.453125 Z M 205.753906 156.003906 C 204.441406 158.359375 203.242188 160.609375 201.867188 162.996094 C 202.910156 162.496094 203.9375 162.441406 204.796875 162.898438 C 207.847656 164.511719 210.445312 166.023438 213.464844 167.703125 C 214.632812 168.378906 215.898438 169.632812 216.027344 171.296875 C 215.976562 173.523438 214.4375 176.214844 212.390625 177.121094 C 210.910156 177.816406 209.222656 177.105469 208.097656 176.453125 C 205.328125 174.792969 203.144531 173.609375 200.378906 171.921875 C 199.421875 171.375 198.570312 170.964844 198.484375 169.191406 C 197.160156 171.4375 195.964844 173.890625 194.578125 176.203125 C 196.421875 175.378906 197.691406 175.929688 199.015625 176.75 C 201.476562 178.164062 203.527344 179.351562 205.964844 180.773438 C 207.828125 181.828125 209.691406 182.527344 212.234375 181.960938 C 214.425781 181.453125 216.289062 179.328125 217.628906 177.140625 C 219.046875 174.847656 220.289062 172.179688 220.148438 169.640625 C 220.023438 167.023438 218.425781 165.234375 216.652344 164.054688 C 213.753906 162.296875 211.453125 161.089844 208.527344 159.386719 C 207.402344 158.707031 205.789062 157.691406 205.753906 156.003906 Z M 207.351562 182.996094 C 207.289062 185.203125 206.054688 187.796875 204.484375 189.597656 C 203.691406 190.660156 201.140625 193.550781 200.109375 194.660156 C 196.617188 191.695312 193.4375 189.007812 189.933594 186.066406 C 189.007812 185.304688 188.277344 184.242188 188.234375 183.035156 C 186.785156 184.527344 184.828125 186.746094 183.484375 188.347656 C 184.683594 188.179688 185.808594 188.761719 186.710938 189.523438 C 190.144531 192.453125 193.476562 195.460938 196.964844 198.34375 C 198.007812 199.296875 198.546875 200.214844 198.601562 201.726562 C 201.765625 198.160156 207.632812 191.414062 210.714844 187.785156 C 210.296875 187.605469 209.738281 187.539062 209.5 187.039062 C 208.589844 185.378906 208.316406 184.316406 207.351562 182.996094 Z M 183.152344 188.761719 C 182.171875 190.046875 180.210938 190.789062 178.796875 191.414062 C 175.742188 192.871094 171.453125 196.359375 170.558594 200.441406 C 169.847656 203.960938 170.621094 206.800781 172.566406 209.367188 C 174.492188 211.964844 176.917969 213.476562 180.265625 213.5625 C 184.015625 213.527344 188.007812 211.121094 190.964844 208.113281 C 191.9375 207.140625 193.132812 205.800781 194.558594 205.691406 C 193.371094 204.277344 192.378906 202.683594 191.085938 201.335938 C 190.246094 203.917969 186.214844 208.152344 183.484375 208.894531 C 181.078125 209.441406 179.464844 208.789062 177.703125 207.273438 C 175.746094 205.246094 174.527344 202.753906 175.339844 199.832031 C 176.546875 196.070312 181.539062 193.316406 184.679688 193.859375 C 184.109375 192.179688 183.679688 190.378906 183.152344 188.761719 Z M 183.152344 188.761719 "/>
<path style=" stroke:none;fill-rule:evenodd;fill:rgb(0%,32.54902%,62.745098%);fill-opacity:1;" d="M 125.558594 50.96875 C 125.160156 52.113281 124.890625 53.625 124.625 54.953125 C 124.566406 55.246094 124.421875 55.445312 124.246094 55.65625 C 115.359375 64.597656 104.378906 61.996094 100.285156 75.109375 C 99.820312 76.21875 100.410156 77.390625 102.390625 78.488281 C 102.589844 78.605469 102.765625 78.554688 102.765625 78.347656 C 102.265625 64.105469 121.507812 65.066406 125.714844 55.183594 C 125.761719 55.085938 125.902344 55.109375 125.949219 55.183594 C 129.484375 61.785156 135.328125 62.648438 140.671875 65.734375 C 144.671875 68.042969 147.554688 70.136719 148.371094 76.691406 C 148.398438 77 148.484375 76.941406 148.640625 76.785156 C 149.246094 76.117188 150.714844 75.773438 150.671875 74.773438 C 149.378906 65.105469 138.730469 63.015625 130.183594 59.035156 C 129.828125 58.761719 129.46875 58.488281 129.109375 58.214844 C 127.324219 56.101562 125.960938 53.714844 125.558594 50.96875 Z M 125.40625 63.058594 C 125.308594 63.066406 125.230469 63.085938 125.144531 63.132812 C 125.054688 63.179688 124.964844 63.273438 124.914062 63.371094 C 124.867188 63.460938 124.886719 63.742188 124.914062 63.9375 C 124.945312 64.0625 125.058594 64.128906 125.128906 64.210938 C 125.269531 64.386719 125.394531 64.484375 125.578125 64.621094 C 125.808594 64.773438 126.089844 64.585938 126.140625 64.40625 C 126.210938 64.089844 126.210938 63.742188 126.140625 63.46875 C 126.125 63.367188 126.046875 63.304688 125.984375 63.210938 C 125.898438 63.117188 125.800781 63.066406 125.652344 63.058594 C 125.589844 63.054688 125.492188 63.046875 125.40625 63.058594 Z M 128.308594 65.753906 C 128.277344 65.761719 128.265625 65.765625 128.234375 65.792969 C 128.179688 65.835938 128.132812 65.910156 128.132812 65.984375 C 128.128906 66.375 127.953125 66.941406 128.308594 67.144531 C 128.484375 67.222656 128.703125 67.253906 128.839844 67.097656 C 128.910156 66.984375 129.042969 66.949219 129.035156 66.75 C 129.035156 66.652344 128.902344 66.625 128.859375 66.515625 C 128.804688 66.359375 128.835938 66.082031 128.777344 65.96875 C 128.726562 65.882812 128.675781 65.804688 128.585938 65.792969 C 128.488281 65.773438 128.402344 65.730469 128.308594 65.753906 Z M 122.960938 65.808594 C 122.703125 65.898438 122.429688 66.085938 122.335938 66.417969 C 122.222656 66.613281 122.226562 66.765625 122.335938 66.886719 C 122.46875 67.085938 122.640625 67.324219 122.878906 67.433594 C 123.078125 67.53125 123.339844 67.53125 123.429688 67.097656 C 123.527344 66.742188 123.535156 66.242188 123.375 66.105469 C 123.164062 65.957031 123.214844 65.746094 122.960938 65.808594 Z M 125.789062 70.515625 C 124.652344 73.941406 124.359375 75.667969 123.546875 78.390625 C 125.035156 78.402344 125.851562 78.410156 126.921875 78.429688 C 126.050781 75.324219 126.011719 74.09375 125.789062 70.515625 Z M 125.789062 70.515625 "/>
<path style=" stroke:none;fill-rule:evenodd;fill:rgb(0%,32.54902%,62.745098%);fill-opacity:1;" d="M 73.292969 87.433594 C 73.242188 87.433594 73.179688 87.460938 73.117188 87.511719 C 65.199219 93.097656 63.046875 102.996094 52.863281 101.359375 C 60.09375 104.742188 59.917969 113.050781 60.65625 120.753906 C 61.277344 127.246094 66.242188 135.992188 79.625 134.171875 C 79.773438 134.160156 79.871094 134.039062 79.777344 133.898438 C 78.921875 132.675781 76.054688 133.078125 75.339844 132.960938 C 64.746094 130.972656 62.953125 121.230469 60.753906 110.203125 C 60.242188 107.019531 58.175781 105.003906 56.90625 102.613281 C 56.8125 102.367188 56.730469 102.289062 57.042969 102.234375 C 63.792969 100.941406 68.878906 95.085938 74.289062 88.859375 C 74.402344 88.792969 74.425781 88.636719 74.289062 88.523438 C 73.984375 88.21875 73.707031 87.878906 73.429688 87.511719 C 73.378906 87.460938 73.347656 87.429688 73.292969 87.433594 Z M 72.28125 100.246094 C 72.183594 100.253906 72.085938 100.273438 72.003906 100.320312 C 71.910156 100.367188 71.824219 100.460938 71.765625 100.558594 C 71.722656 100.648438 71.742188 100.929688 71.765625 101.125 C 71.804688 101.25 71.933594 101.316406 72.003906 101.398438 C 72.144531 101.570312 72.273438 101.671875 72.457031 101.808594 C 72.683594 101.960938 72.949219 101.773438 73 101.59375 C 73.066406 101.277344 73.066406 100.929688 73 100.65625 C 72.976562 100.554688 72.902344 100.492188 72.839844 100.398438 C 72.753906 100.304688 72.660156 100.253906 72.511719 100.246094 C 72.445312 100.242188 72.367188 100.234375 72.28125 100.246094 Z M 75.324219 103.015625 C 75.292969 103.023438 75.261719 103.035156 75.230469 103.058594 C 75.171875 103.097656 75.128906 103.171875 75.128906 103.253906 C 75.109375 103.636719 74.910156 104.195312 75.265625 104.40625 C 75.4375 104.496094 75.652344 104.519531 75.789062 104.367188 C 75.867188 104.253906 76.003906 104.230469 76.003906 104.035156 C 76.007812 103.9375 75.890625 103.910156 75.855469 103.800781 C 75.804688 103.640625 75.828125 103.359375 75.773438 103.253906 C 75.726562 103.167969 75.675781 103.070312 75.578125 103.058594 C 75.484375 103.035156 75.414062 102.996094 75.324219 103.015625 Z M 69.933594 103.429688 C 69.679688 103.515625 69.402344 103.722656 69.308594 104.054688 C 69.199219 104.246094 69.203125 104.382812 69.308594 104.503906 C 69.441406 104.703125 69.632812 104.941406 69.871094 105.050781 C 70.074219 105.148438 70.335938 105.167969 70.425781 104.734375 C 70.523438 104.378906 70.511719 103.863281 70.339844 103.722656 C 70.136719 103.574219 70.191406 103.367188 69.933594 103.429688 Z M 73.0625 108.078125 C 72.640625 111.535156 71.378906 115.484375 70.148438 118.078125 C 71.585938 117.886719 72.734375 118.757812 72.824219 119.875 C 73.1875 118.609375 74.152344 117.640625 75.304688 117.980469 C 74.546875 114.84375 73.617188 111.472656 73.0625 108.078125 Z M 73.0625 108.078125 "/>
<path style=" stroke:none;fill-rule:evenodd;fill:rgb(0%,32.54902%,62.745098%);fill-opacity:1;" d="M 84.367188 141.746094 C 84.308594 141.761719 84.246094 141.777344 84.171875 141.808594 C 71.910156 146.546875 69.457031 157.558594 76.316406 167.253906 C 81.46875 175.910156 83.75 179.476562 81.296875 186.433594 C 90.882812 175.023438 107.867188 193.484375 117.609375 179.25 C 117.738281 179.074219 117.535156 178.953125 117.332031 178.757812 C 116.859375 178.429688 116.359375 178.210938 115.871094 178.015625 C 115.511719 177.878906 115.3125 177.960938 115.089844 178.273438 C 111.101562 182.472656 98.171875 181.539062 88.390625 181.570312 C 88.09375 181.570312 87.199219 181.726562 86.90625 181.886719 C 85.964844 182.367188 85.015625 182.792969 84.015625 182.703125 C 83.75 182.703125 83.339844 182.558594 83.410156 182.003906 C 83.898438 174.890625 79.664062 170.371094 76.984375 164.503906 C 76.144531 162.503906 69.933594 151.277344 84.875 144.460938 C 84.941406 144.328125 85.085938 144.253906 85.066406 144.054688 C 85.023438 143.359375 84.878906 142.671875 84.675781 141.960938 C 84.640625 141.785156 84.542969 141.722656 84.367188 141.746094 Z M 95.460938 155.300781 C 95.363281 155.316406 95.265625 155.335938 95.183594 155.378906 C 95.089844 155.429688 95.003906 155.523438 94.957031 155.617188 C 94.910156 155.710938 94.921875 155.992188 94.957031 156.183594 C 94.984375 156.308594 95.117188 156.371094 95.183594 156.453125 C 95.335938 156.628906 95.453125 156.726562 95.636719 156.867188 C 95.867188 157.015625 96.15625 156.828125 96.203125 156.648438 C 96.265625 156.335938 96.273438 155.984375 96.203125 155.710938 C 96.179688 155.609375 96.082031 155.554688 96.03125 155.460938 C 95.933594 155.359375 95.859375 155.316406 95.714844 155.300781 C 95.648438 155.296875 95.554688 155.289062 95.460938 155.300781 Z M 98.546875 157.921875 C 98.515625 157.925781 98.480469 157.933594 98.449219 157.960938 C 98.398438 158.003906 98.347656 158.078125 98.351562 158.152344 C 98.335938 158.542969 98.136719 159.097656 98.484375 159.3125 C 98.660156 159.398438 98.855469 159.414062 98.996094 159.265625 C 99.066406 159.152344 99.226562 159.136719 99.226562 158.933594 C 99.234375 158.84375 99.097656 158.816406 99.054688 158.703125 C 99.003906 158.546875 99.046875 158.265625 98.996094 158.152344 C 98.945312 158.066406 98.898438 157.972656 98.796875 157.960938 C 98.707031 157.933594 98.640625 157.902344 98.546875 157.921875 Z M 93.039062 158.253906 C 92.785156 158.339844 92.511719 158.546875 92.417969 158.878906 C 92.296875 159.066406 92.308594 159.210938 92.417969 159.328125 C 92.546875 159.527344 92.722656 159.757812 92.960938 159.871094 C 93.160156 159.972656 93.421875 159.992188 93.503906 159.5625 C 93.605469 159.203125 93.617188 158.683594 93.445312 158.546875 C 93.242188 158.398438 93.296875 158.191406 93.039062 158.253906 Z M 95.855469 162.703125 C 95.4375 166.160156 94.171875 170.109375 92.941406 172.703125 C 94.378906 172.511719 95.527344 173.367188 95.617188 174.484375 C 95.980469 173.222656 96.949219 172.265625 98.097656 172.609375 C 97.339844 169.472656 96.402344 166.101562 95.855469 162.703125 Z M 95.855469 162.703125 "/>
<path style=" stroke:none;fill-rule:evenodd;fill:rgb(0%,32.54902%,62.745098%);fill-opacity:1;" d="M 165.515625 141.730469 C 165.453125 141.734375 165.382812 141.796875 165.359375 141.867188 C 165.089844 142.441406 164.816406 142.992188 164.539062 143.566406 C 164.296875 144.21875 164.285156 144.773438 165.265625 145.085938 C 182.835938 152.265625 174.183594 165.859375 169.601562 173.835938 C 169.128906 174.65625 167.992188 177.070312 167.902344 178.136719 C 167.730469 179.265625 167.902344 180.253906 167.878906 181.433594 C 167.878906 181.710938 167.492188 181.785156 167.277344 181.746094 C 156.027344 179.585938 146.296875 189.523438 137.078125 178.796875 C 136.226562 177.878906 135.210938 177.789062 134.835938 178.078125 C 134.429688 178.382812 134.128906 178.722656 133.839844 179.171875 C 133.648438 179.441406 133.652344 179.597656 133.878906 179.871094 C 143.464844 193.316406 157.636719 177.441406 169.796875 184.128906 C 166.949219 177.292969 172.558594 170.660156 175.734375 164.699219 C 182.789062 152.710938 174.535156 145.34375 165.578125 141.730469 C 165.550781 141.71875 165.539062 141.730469 165.515625 141.730469 Z M 156.203125 155.046875 C 156.109375 155.058594 156.027344 155.078125 155.945312 155.128906 C 155.855469 155.171875 155.765625 155.265625 155.714844 155.359375 C 155.671875 155.453125 155.683594 155.753906 155.714844 155.945312 C 155.746094 156.070312 155.859375 156.121094 155.929688 156.203125 C 156.070312 156.371094 156.195312 156.476562 156.375 156.609375 C 156.609375 156.765625 156.890625 156.578125 156.941406 156.398438 C 157.007812 156.085938 157.007812 155.730469 156.941406 155.460938 C 156.921875 155.351562 156.84375 155.296875 156.789062 155.203125 C 156.695312 155.109375 156.601562 155.058594 156.453125 155.046875 C 156.390625 155.042969 156.289062 155.035156 156.203125 155.046875 Z M 159.152344 157.746094 C 159.121094 157.746094 159.085938 157.761719 159.050781 157.785156 C 158.996094 157.824219 158.953125 157.902344 158.953125 157.976562 C 158.9375 158.359375 158.738281 158.921875 159.089844 159.128906 C 159.265625 159.222656 159.476562 159.238281 159.621094 159.089844 C 159.691406 158.980469 159.832031 158.960938 159.832031 158.757812 C 159.832031 158.667969 159.722656 158.632812 159.679688 158.519531 C 159.628906 158.367188 159.652344 158.089844 159.605469 157.976562 C 159.554688 157.890625 159.519531 157.796875 159.421875 157.785156 C 159.335938 157.761719 159.238281 157.726562 159.152344 157.746094 Z M 153.703125 158.152344 C 153.445312 158.242188 153.191406 158.453125 153.097656 158.78125 C 152.984375 158.972656 152.992188 159.109375 153.097656 159.226562 C 153.234375 159.429688 153.402344 159.664062 153.640625 159.773438 C 153.839844 159.871094 154.101562 159.890625 154.191406 159.460938 C 154.292969 159.101562 154.277344 158.582031 154.109375 158.445312 C 153.910156 158.296875 153.960938 158.089844 153.703125 158.152344 Z M 156.691406 162.609375 C 156.277344 166.066406 155.011719 170.015625 153.777344 172.609375 C 155.222656 172.414062 156.371094 173.292969 156.453125 174.402344 C 156.816406 173.140625 157.785156 172.171875 158.933594 172.511719 C 158.179688 169.371094 157.246094 166.003906 156.691406 162.609375 Z M 156.691406 162.609375 "/>
<path style=" stroke:none;fill-rule:evenodd;fill:rgb(0%,32.54902%,62.745098%);fill-opacity:1;" d="M 176.183594 87.253906 C 176.148438 87.269531 176.113281 87.296875 176.085938 87.335938 C 175.953125 87.492188 175.839844 88.347656 175.808594 88.917969 C 175.804688 89.035156 175.804688 89.128906 175.929688 89.210938 C 178.445312 90.742188 185.992188 99.296875 192.566406 100.792969 C 192.855469 100.851562 192.890625 101.097656 192.746094 101.242188 C 184.929688 110.429688 194.253906 124.777344 178.839844 130.25 C 175.976562 131.035156 173.097656 130.660156 172.566406 132.566406 C 172.550781 132.636719 172.644531 132.722656 172.703125 132.722656 C 181.972656 133.308594 187.753906 130.1875 189.484375 123.566406 C 191.714844 116.191406 187.515625 105.710938 195.421875 99.992188 C 195.621094 99.839844 195.515625 99.578125 195.339844 99.597656 C 187.34375 100.410156 182.234375 91.929688 176.296875 87.273438 C 176.265625 87.253906 176.214844 87.246094 176.183594 87.253906 Z M 178.722656 99.597656 C 178.628906 99.617188 178.527344 99.648438 178.445312 99.699219 C 178.355469 99.742188 178.265625 99.835938 178.214844 99.9375 C 178.171875 100.023438 178.183594 100.304688 178.214844 100.496094 C 178.246094 100.621094 178.359375 100.691406 178.429688 100.773438 C 178.570312 100.949219 178.695312 101.027344 178.875 101.160156 C 179.109375 101.316406 179.390625 101.148438 179.441406 100.964844 C 179.507812 100.65625 179.507812 100.304688 179.441406 100.027344 C 179.421875 99.929688 179.34375 99.847656 179.289062 99.753906 C 179.195312 99.660156 179.101562 99.609375 178.953125 99.597656 C 178.890625 99.597656 178.808594 99.585938 178.722656 99.597656 Z M 181.433594 102.613281 C 181.402344 102.617188 181.371094 102.625 181.339844 102.648438 C 181.285156 102.691406 181.257812 102.765625 181.257812 102.84375 C 181.238281 103.230469 181.046875 103.785156 181.398438 104 C 181.5625 104.085938 181.765625 104.105469 181.902344 103.953125 C 181.976562 103.839844 182.121094 103.824219 182.121094 103.625 C 182.121094 103.527344 182.003906 103.503906 181.964844 103.390625 C 181.914062 103.234375 181.941406 102.953125 181.882812 102.84375 C 181.839844 102.753906 181.800781 102.660156 181.710938 102.648438 C 181.613281 102.625 181.527344 102.589844 181.433594 102.613281 Z M 175.851562 102.648438 C 175.59375 102.734375 175.339844 102.941406 175.246094 103.273438 C 175.136719 103.464844 175.140625 103.601562 175.246094 103.722656 C 175.378906 103.925781 175.554688 104.160156 175.792969 104.265625 C 175.988281 104.367188 176.25 104.382812 176.339844 103.953125 C 176.433594 103.597656 176.425781 103.097656 176.261719 102.960938 C 176.050781 102.808594 176.109375 102.585938 175.851562 102.648438 Z M 178.859375 107.058594 C 178.445312 110.515625 177.179688 114.464844 175.945312 117.0625 C 177.382812 116.867188 178.539062 117.742188 178.621094 118.859375 C 178.984375 117.597656 179.953125 116.621094 181.105469 116.960938 C 180.347656 113.832031 179.414062 110.453125 178.859375 107.058594 Z M 178.859375 107.058594 "/>
<path style=" stroke:none;fill-rule:evenodd;fill:rgb(0%,32.54902%,62.745098%);fill-opacity:1;" d="M 170.871094 65.847656 C 170.839844 65.855469 170.808594 65.855469 170.773438 65.871094 C 163.671875 67.878906 154.085938 76.074219 146.183594 83.253906 C 145.953125 83.515625 145.636719 83.574219 145.378906 83.484375 C 140.128906 81.757812 134.023438 81.535156 128.933594 81.398438 C 121.679688 80.730469 112.953125 81.617188 105.148438 84.148438 C 104.8125 84.265625 104.558594 83.960938 104.308594 83.660156 C 98.128906 76.785156 89.421875 71.15625 80.027344 67.234375 C 79.765625 67.109375 79.546875 67 79.246094 67.273438 C 74.425781 71.722656 75.484375 84.898438 79.625 92.042969 C 80.109375 93.078125 80.21875 94.898438 80.230469 95.515625 C 80.523438 99.359375 81.273438 102.679688 82.277344 106.261719 C 82.527344 108.484375 83.378906 110.746094 84.660156 112.667969 C 84.910156 112.972656 84.800781 113.25 84.621094 113.445312 C 82.984375 115.085938 81.492188 116.636719 79.855469 118.273438 C 79.738281 118.386719 79.511719 118.464844 79.289062 118.503906 C 77.933594 118.660156 77.507812 119.105469 76.867188 120.671875 C 76.773438 120.898438 76.785156 121.054688 76.902344 121.242188 C 77.136719 121.671875 78.707031 124.398438 80.007812 125.847656 C 81.265625 127.09375 80.796875 128.273438 79.738281 129.40625 C 81.742188 130.90625 85.328125 133.773438 85.542969 134.210938 C 85.765625 135.363281 87.804688 135.753906 86.589844 137.410156 C 86.910156 137.484375 87.105469 137.605469 87.351562 137.804688 C 87.535156 138 87.574219 138.1875 87.589844 138.390625 C 87.753906 140.191406 88.09375 141.824219 89.089844 143.546875 C 93.152344 150.433594 97.703125 149.371094 103.117188 155.246094 C 106.351562 158.765625 109.546875 158.90625 111.746094 165.109375 C 111.546875 167.464844 111.421875 168.910156 112.390625 170.945312 C 113.542969 173.433594 116.371094 173.527344 120.007812 175.183594 C 120.496094 175.375 120.765625 175.523438 121.121094 175.890625 C 122.074219 176.816406 123.164062 177.410156 124.402344 178 C 125.40625 178.421875 126.589844 178.421875 127.511719 177.960938 C 129.257812 176.960938 129.628906 177.683594 132.859375 175.359375 C 135.910156 174.457031 140.890625 170.703125 140.359375 164.308594 C 140.375 164.121094 140.421875 163.996094 140.476562 163.832031 C 140.574219 163.539062 140.847656 163.246094 141.105469 162.960938 C 142.332031 161.492188 143.742188 160.191406 144.601562 158.410156 C 144.777344 157.976562 144.929688 157.558594 145.320312 157.234375 C 157.496094 147.296875 153.191406 151.664062 157.589844 148.292969 C 166.617188 141.429688 160.691406 133.417969 171.257812 128.9375 C 169.828125 125.902344 170.316406 125.628906 174.972656 119.171875 C 172.511719 117.871094 170.796875 116.378906 169.089844 115.183594 C 163.734375 110.984375 168.597656 107.421875 169.035156 105.359375 C 169.339844 104.191406 169.800781 102.714844 169.914062 101.222656 C 170.484375 97.78125 170.164062 93.722656 171.921875 91.925781 C 173.214844 90.675781 173.589844 83.828125 173.796875 83.273438 C 175.214844 78.804688 174.695312 78.203125 174.953125 75.398438 C 174.996094 75.023438 175.128906 74.726562 174.953125 74.3125 C 173.964844 71.585938 172.753906 68.949219 171.359375 66.335938 C 171.234375 66.109375 171.140625 65.894531 170.964844 65.847656 C 170.9375 65.84375 170.902344 65.847656 170.871094 65.847656 Z M 166.652344 76.359375 C 166.082031 81.96875 164.039062 85.679688 164.679688 90.378906 C 162.296875 93.304688 163.097656 98.761719 160.90625 102.023438 C 160.765625 102.210938 160.574219 102.316406 160.339844 102.296875 C 157.433594 101.816406 155.398438 98.152344 152.921875 96.085938 C 152.671875 95.886719 152.546875 95.699219 152.628906 95.5 C 153.636719 93.261719 155.945312 91.015625 154.152344 88.742188 C 154.242188 82.222656 162.027344 81.175781 166.652344 76.359375 Z M 82.921875 77.4375 C 87.488281 79.992188 90.402344 84.285156 92.648438 84.347656 C 93 84.890625 93.496094 85.453125 93.914062 85.894531 C 97.277344 89.71875 94.609375 91.144531 97.566406 96.046875 C 97.886719 96.734375 98.027344 97.402344 97.566406 97.820312 C 95.589844 99.539062 93.835938 101.285156 92.195312 103.171875 C 90.027344 105.804688 88.972656 104.835938 88.332031 103.171875 C 87.929688 101.941406 87.503906 100.546875 88.058594 99.128906 C 88.40625 98.347656 88.195312 97.707031 87.609375 96.960938 C 86.820312 95.855469 86.179688 94.6875 85.558594 93.523438 C 85.339844 93.085938 85.199219 92.710938 85.109375 92.160156 C 84.332031 87.324219 84.472656 80.089844 82.921875 77.4375 Z M 139.65625 125.320312 C 139.992188 125.285156 140.285156 125.515625 140.324219 125.847656 C 140.359375 126.1875 140.109375 126.5 139.777344 126.535156 C 139.441406 126.566406 139.148438 126.324219 139.109375 125.984375 C 139.078125 125.65625 139.328125 125.359375 139.65625 125.320312 Z M 108.464844 125.378906 C 108.804688 125.347656 109.097656 125.570312 109.128906 125.910156 C 109.167969 126.242188 108.914062 126.535156 108.585938 126.574219 C 108.253906 126.609375 107.953125 126.378906 107.921875 126.046875 C 107.882812 125.710938 108.132812 125.417969 108.464844 125.378906 Z M 158.722656 138.957031 C 159.214844 138.960938 159.367188 139.421875 159.308594 139.890625 C 158.785156 146.515625 155.695312 144.691406 148.640625 150.96875 C 146.796875 152.441406 147.402344 153.871094 144.914062 155.96875 C 142.828125 157.914062 140.882812 159.953125 139.109375 162.472656 C 138.820312 162.90625 138.609375 162.445312 138.582031 162.253906 C 138.496094 161.726562 138.183594 161.132812 137.746094 160.652344 C 136.578125 159.339844 138.441406 159.503906 136.339844 156.359375 C 135.472656 155.085938 134.464844 156.726562 133.859375 154.660156 C 133.484375 153.328125 133.839844 153.984375 133.371094 150.890625 L 134.605469 149.871094 C 135.183594 151.523438 135.996094 152.902344 136.882812 154.050781 C 137.015625 154.210938 136.773438 155.601562 137.316406 156.828125 C 137.429688 154.894531 139.160156 153.777344 136.691406 150.304688 C 136.371094 149.851562 136.203125 149.410156 136.085938 148.878906 C 136.070312 148.824219 136.058594 148.777344 136.046875 148.722656 C 140.722656 145.683594 145.953125 143.203125 150.890625 141.160156 C 150.640625 141.441406 150.394531 141.722656 150.144531 142.023438 C 150.035156 142.160156 150.253906 142.210938 150.320312 142.179688 C 150.621094 142.097656 150.765625 142.136719 151 142.179688 C 151.160156 142.273438 151.140625 142.433594 151.140625 142.585938 C 151.175781 143.160156 150.714844 143.191406 150.851562 143.835938 C 151.667969 142.792969 152.441406 141.777344 153.269531 140.828125 C 153.464844 140.585938 153.722656 140.296875 154.109375 140.34375 L 155.011719 140.460938 C 155.316406 140.472656 155.609375 140.417969 155.945312 140.320312 C 156.742188 140.007812 157.335938 139.625 158.097656 139.109375 C 158.34375 138.992188 158.554688 138.957031 158.722656 138.957031 Z M 92.355469 140.007812 C 92.382812 140.007812 92.433594 140.03125 92.472656 140.046875 C 94.816406 141.222656 98.011719 141.960938 99.640625 142.644531 C 100.496094 143.046875 101.417969 143.640625 102.078125 143.742188 C 102.351562 143.761719 102.351562 143.613281 102.214844 143.449219 C 102.039062 143.171875 101.863281 142.910156 101.691406 142.667969 C 105.714844 144.535156 109.445312 146.703125 113.390625 149.308594 C 113.378906 149.34375 113.359375 149.371094 113.355469 149.40625 C 113.242188 149.742188 113.128906 150.046875 113.015625 150.324219 C 112.953125 150.480469 112.886719 150.65625 112.824219 150.792969 C 112.773438 150.910156 112.714844 151.035156 112.664062 151.140625 C 112.574219 151.339844 112.476562 151.5625 112.390625 151.730469 C 112.277344 151.945312 112.15625 152.203125 112.058594 152.390625 C 112.03125 152.464844 111.996094 152.535156 111.964844 152.609375 C 111.902344 152.75 111.832031 152.886719 111.792969 153.015625 C 111.757812 153.109375 111.734375 153.195312 111.710938 153.292969 C 111.695312 153.332031 111.679688 153.378906 111.671875 153.429688 C 111.648438 153.554688 111.640625 153.679688 111.628906 153.816406 C 111.621094 153.941406 111.621094 154.074219 111.628906 154.210938 C 111.640625 154.355469 111.648438 154.496094 111.671875 154.660156 C 111.722656 155.054688 111.832031 155.203125 111.964844 155.265625 C 112.003906 155.285156 112.058594 155.289062 112.105469 155.300781 C 112.195312 155.324219 112.378906 155.351562 112.433594 155.203125 C 112.476562 155.066406 112.546875 154.929688 112.609375 154.796875 C 112.671875 154.660156 112.726562 154.535156 112.804688 154.402344 C 112.949219 154.140625 113.117188 153.878906 113.292969 153.621094 C 113.328125 153.566406 113.367188 153.503906 113.410156 153.445312 C 113.726562 153 114.078125 152.566406 114.402344 152.121094 C 114.433594 152.078125 114.453125 152.042969 114.484375 152.003906 C 114.617188 151.808594 114.734375 151.609375 114.855469 151.414062 C 114.898438 151.347656 114.945312 151.273438 114.992188 151.203125 C 115.101562 151.007812 115.214844 150.816406 115.300781 150.617188 L 117.824219 152.492188 C 117.40625 153.515625 116.867188 154.90625 116.710938 155.890625 C 116.414062 158.109375 115.054688 157.609375 114.035156 156.765625 C 114.097656 159.054688 114.273438 160.035156 112.996094 162.039062 C 112.828125 162.328125 112.671875 162.226562 112.566406 162.039062 C 109.484375 156.097656 106.507812 157.515625 102.609375 151.183594 C 102.261719 150.265625 101.597656 149.390625 100.320312 148.914062 C 95.515625 147.023438 92.082031 145.722656 92.195312 140.203125 C 92.203125 140.105469 92.253906 140.007812 92.355469 140.007812 Z M 134.734375 159.855469 C 134.933594 159.867188 135.109375 160.035156 135.183594 160.246094 C 136.152344 162.433594 137.359375 166.285156 136.964844 167.527344 C 135.539062 172.992188 131.691406 173.898438 128.117188 173.429688 C 125.433594 173.078125 125.421875 172.449219 125.378906 170.65625 C 125.382812 170.457031 125.652344 170.382812 125.871094 170.320312 C 129.109375 169.304688 131.058594 167.539062 131.140625 164.171875 C 131.160156 163.714844 131.214844 163.234375 130.984375 162.820312 C 131.890625 162.242188 132.726562 161.640625 133.546875 160.890625 C 133.570312 160.867188 133.601562 160.839844 133.621094 160.8125 C 133.871094 160.414062 134.152344 160.097656 134.542969 159.890625 C 134.609375 159.867188 134.671875 159.847656 134.734375 159.855469 Z M 116.726562 160.265625 C 116.835938 160.234375 116.929688 160.292969 117.042969 160.421875 C 117.121094 160.511719 117.234375 160.789062 117.492188 160.789062 C 117.925781 161.34375 118.535156 161.816406 119.109375 162.234375 C 118.933594 162.410156 118.828125 162.609375 118.757812 162.820312 C 118.578125 163.339844 118.609375 164.222656 118.757812 165.027344 C 118.820312 165.503906 118.984375 165.921875 119.226562 166.335938 C 120.398438 168.15625 121.230469 168.972656 122.546875 169.871094 C 123.097656 170.203125 123.703125 170.492188 124.402344 170.421875 C 124.597656 170.394531 124.710938 170.527344 124.675781 170.691406 C 124.464844 173.371094 123.246094 173.554688 120.167969 173.171875 C 113.34375 171.808594 112.738281 167.363281 116.433594 160.652344 C 116.515625 160.414062 116.628906 160.296875 116.726562 160.265625 Z M 125.578125 174.773438 C 126.519531 174.753906 127.523438 174.785156 128.503906 174.910156 C 128.652344 174.941406 128.664062 175.066406 128.625 175.164062 C 128.484375 175.535156 128.070312 176.003906 127.859375 176.183594 C 127.730469 176.285156 127.527344 176.324219 127.351562 176.378906 C 126.617188 176.574219 125.46875 176.660156 125.265625 176.628906 C 125.082031 176.589844 124.902344 176.523438 124.734375 176.414062 C 124.09375 176.054688 123.492188 175.632812 122.859375 175.25 C 122.722656 175.140625 122.71875 174.976562 122.878906 174.953125 C 123.730469 174.871094 124.628906 174.796875 125.578125 174.773438 Z M 125.578125 174.773438 "/>
<path style=" stroke:none;fill-rule:evenodd;fill:rgb(99.215686%,74.509804%,6.666667%);fill-opacity:1;" d="M 170.109375 70.8125 C 170.070312 70.8125 170.035156 70.816406 169.992188 70.828125 C 162.234375 73.648438 152.613281 79.261719 147.609375 86.710938 C 145.589844 88.335938 143.523438 89.921875 141.378906 91.316406 C 145.835938 85.390625 136.941406 85 126.222656 83.835938 C 118.855469 83.207031 110.0625 85.511719 107.199219 87.082031 C 106.941406 87.230469 106.78125 87.523438 106.984375 87.785156 C 107.785156 88.921875 108.03125 90.261719 108.503906 91.515625 C 108.566406 91.652344 108.433594 91.664062 108.328125 91.574219 C 99.003906 83.222656 85.066406 71.960938 80.421875 70.847656 C 80.203125 70.8125 80.003906 70.886719 79.890625 71.085938 C 79.5625 71.777344 79.484375 71.980469 79.230469 72.667969 C 79.046875 73.273438 78.714844 73.648438 78.546875 73.816406 C 75.890625 76.421875 80.546875 81.3125 81.242188 90.25 C 81.707031 94.023438 82.617188 95.714844 83.484375 98.3125 C 83.617188 98.660156 83.703125 98.960938 83.761719 99.308594 C 84.964844 103.472656 85.753906 107.714844 87.351562 111.574219 C 89.257812 117.769531 81.785156 116.75 81.480469 121.886719 C 81.304688 125.371094 85.394531 127.285156 84.699219 129.835938 C 84.652344 129.996094 84.355469 130.171875 84.523438 130.378906 C 87.675781 133.648438 88.890625 132.886719 90.164062 135.597656 C 93.121094 140.777344 96.335938 135.109375 101.691406 142.667969 C 105.714844 144.535156 109.445312 146.703125 113.390625 149.308594 C 113.671875 148.429688 113.933594 147.335938 114.171875 145.910156 C 114.640625 143.089844 114.546875 140.246094 112.765625 136.316406 C 112.441406 135.742188 112.636719 134.769531 113.214844 134.3125 C 113.507812 134.089844 113.632812 134.003906 113.667969 134.460938 C 114.164062 139.6875 118.445312 143.210938 115.808594 148.15625 C 115.714844 148.335938 115.601562 148.484375 115.636719 148.777344 C 115.691406 149.445312 115.554688 150.046875 115.300781 150.617188 L 117.824219 152.492188 C 117.988281 152.082031 118.140625 151.742188 118.234375 151.5 C 119.359375 145.691406 120.242188 136.316406 121.082031 135.148438 C 121.160156 135.035156 121.253906 134.859375 121.082031 134.734375 C 120.105469 133.722656 119.003906 132.042969 119.503906 131.535156 C 120.042969 131.128906 123.171875 132.394531 123.152344 134.660156 C 123.023438 136.691406 121.042969 155.5 118.566406 158.152344 C 118.445312 158.289062 118.492188 158.382812 118.566406 158.484375 C 119.648438 160.007812 119.414062 160.386719 119.035156 160.578125 C 118.691406 160.710938 117.972656 160.652344 117.648438 160.773438 C 117.589844 160.789062 117.535156 160.789062 117.492188 160.789062 C 117.925781 161.34375 118.535156 161.816406 119.109375 162.234375 C 119.453125 161.898438 120.035156 161.648438 120.929688 161.515625 C 124.421875 160.910156 127.753906 161.011719 130.304688 162.214844 C 130.644531 162.390625 130.859375 162.597656 130.984375 162.820312 C 131.890625 162.242188 132.726562 161.640625 133.546875 160.890625 C 133.308594 161.066406 132.804688 160.898438 132.726562 160.496094 C 131.328125 152.875 129.835938 151.699219 128.953125 145.949219 C 128.597656 143.996094 128.425781 141.953125 128.796875 140.082031 C 128.914062 139.476562 128.953125 138.929688 128.796875 138.273438 C 128.289062 136.390625 128.320312 134.429688 128.742188 132.566406 C 129.027344 131.941406 129.761719 131.105469 130.285156 130.398438 C 130.71875 129.828125 131.023438 129.167969 131.261719 128.449219 C 131.503906 127.703125 133.921875 124.09375 135.984375 123.523438 C 136.160156 123.476562 136.183594 123.375 136.203125 123.210938 C 136.222656 123.03125 135.882812 123.023438 135.910156 122.746094 C 135.984375 121.308594 145.019531 122.085938 149.777344 122.527344 C 151.589844 122.367188 153.398438 122.085938 155.109375 121.769531 C 155.410156 121.710938 155.429688 121.816406 155.25 122.003906 C 153.828125 123.566406 151.785156 124.421875 149.9375 124.660156 C 149.585938 124.710938 149.488281 124.902344 149.421875 125.167969 C 148.363281 130.472656 140.691406 133.035156 137.355469 132.410156 C 137.140625 132.371094 137.132812 132.523438 137.140625 132.628906 C 137.382812 135.347656 136.214844 135.625 135.203125 143.566406 C 135.140625 144.007812 135.160156 144.402344 135.226562 144.851562 C 135.386719 146.140625 135.757812 147.363281 136.046875 148.722656 C 140.722656 145.683594 145.953125 143.203125 150.890625 141.160156 C 151.890625 140.03125 152.878906 139.007812 153.914062 137.859375 C 154.203125 137.480469 154.757812 137.246094 155.285156 137.0625 C 159.214844 135.410156 163.199219 132.839844 166.183594 129.597656 C 166.269531 129.492188 166.453125 129.316406 166.394531 129.109375 C 165.484375 124.847656 168.296875 123.585938 170.066406 120.421875 C 170.332031 120.011719 170.046875 119.902344 169.753906 119.753906 C 167.808594 118.527344 166.039062 116.835938 164.679688 115.246094 C 164.359375 114.773438 164.222656 114.171875 164.109375 113.640625 C 162.703125 107.019531 165.613281 106.535156 166.140625 102.703125 C 166.101562 100.796875 166.617188 98.554688 167.214844 96.574219 C 167.921875 94.265625 168.238281 92.394531 169.054688 91.105469 C 169.453125 79.566406 173.035156 82.171875 172.058594 76.023438 C 171.804688 74.792969 171.152344 72.558594 170.378906 71.023438 C 170.316406 70.878906 170.21875 70.816406 170.109375 70.8125 Z M 167.902344 73.0625 C 167.964844 73.046875 168.035156 73.054688 168.097656 73.0625 C 168.511719 73.089844 168.832031 73.398438 168.878906 73.78125 C 168.953125 74.527344 169.117188 75.21875 169.265625 75.910156 C 166.597656 82.285156 168.148438 91.035156 164.660156 96.398438 C 164.484375 101.097656 163.894531 104.09375 161.105469 105.96875 C 160.992188 106.054688 160.867188 106.042969 160.734375 105.96875 C 156.277344 103.789062 152.296875 99.253906 148.410156 95.691406 C 154.457031 91.753906 148.980469 87.617188 153.292969 83.097656 C 158.308594 77.796875 162.726562 77.273438 167.316406 73.328125 C 167.507812 73.164062 167.707031 73.078125 167.902344 73.0625 Z M 81.183594 73.390625 C 81.734375 73.398438 82.367188 73.691406 82.820312 74.128906 C 87.289062 76.085938 86.890625 77.871094 90.378906 79.625 C 91.121094 80.011719 92.390625 80.707031 93.371094 80.929688 C 93.824219 82.492188 94.558594 82.449219 96.203125 85.25 C 96.597656 85.933594 98.039062 87.058594 98.171875 88 C 98.273438 88.585938 98.261719 89.097656 98.214844 89.660156 C 98.171875 91.253906 97.515625 92.773438 98.390625 93.484375 C 99.109375 93.855469 98.632812 94.214844 99.933594 94.871094 C 100.589844 95.191406 100.929688 95.515625 100.578125 96.203125 C 99.539062 98.023438 98.265625 99.523438 97.105469 101.1875 C 96.800781 101.570312 96.359375 101.878906 95.910156 102.140625 C 93.390625 103.652344 91.296875 105.78125 89.035156 107.785156 C 88.890625 107.890625 88.824219 107.785156 88.722656 107.75 C 86.554688 106.515625 85.976562 104.367188 85.691406 101.433594 C 84.941406 93.609375 83.371094 100.378906 80.734375 77.078125 C 80.378906 76.027344 79.992188 74.15625 80.320312 73.722656 C 80.546875 73.492188 80.847656 73.386719 81.183594 73.390625 Z M 132.214844 88.566406 C 130.210938 92.285156 129.191406 91.9375 127.980469 93.390625 C 127.890625 93.492188 127.796875 93.617188 127.703125 93.742188 C 127.617188 93.867188 127.523438 93.996094 127.4375 94.148438 C 127.339844 94.296875 127.273438 94.429688 127.234375 94.5625 C 127.234375 94.566406 127.238281 94.574219 127.234375 94.578125 C 127.203125 94.703125 127.183594 94.84375 127.175781 94.953125 C 127.234375 96.167969 127.035156 96.660156 127.351562 97.0625 C 127.375 97.089844 127.386719 97.125 127.390625 97.160156 C 127.410156 97.199219 127.410156 97.238281 127.414062 97.273438 C 127.421875 97.355469 127.402344 97.4375 127.375 97.492188 C 127.148438 97.347656 126.796875 97.078125 126.496094 96.8125 C 126.265625 96.605469 126.074219 96.410156 125.984375 96.242188 C 125.984375 96.234375 125.988281 96.230469 125.984375 96.222656 C 125.960938 96.167969 125.949219 96.109375 125.949219 96.066406 C 125.949219 95.941406 125.9375 95.863281 125.925781 95.789062 C 125.898438 95.511719 125.816406 95.554688 125.75 95.246094 C 125.722656 95.09375 125.683594 94.847656 125.671875 94.425781 C 125.664062 94.214844 125.671875 93.957031 125.671875 93.640625 C 125.648438 93.441406 125.664062 93.339844 125.714844 93.253906 C 125.734375 93.214844 125.761719 93.175781 125.789062 93.136719 C 125.824219 93.097656 125.851562 93.0625 125.890625 93.015625 C 127.703125 91.15625 130.109375 89.921875 132.214844 88.566406 Z M 117.765625 89.015625 C 119.664062 90.304688 121.796875 92.027344 123.878906 93.757812 C 123.921875 93.808594 123.953125 93.859375 123.996094 93.917969 C 124.117188 94.097656 124.203125 94.3125 124.15625 94.578125 C 124.03125 95.367188 123.652344 96.121094 123.351562 96.921875 C 123.339844 96.960938 123.316406 96.976562 123.289062 97.003906 C 123.265625 97.023438 123.246094 97.050781 123.214844 97.0625 C 123.152344 97.085938 123.078125 97.078125 123.039062 97.039062 C 122.667969 96.566406 122.261719 96.085938 121.921875 95.597656 C 121.808594 95.449219 121.691406 95.285156 121.691406 95.085938 C 121.703125 94.929688 121.710938 94.773438 121.710938 94.640625 C 121.710938 94.503906 121.703125 94.386719 121.691406 94.265625 C 121.660156 94.046875 121.589844 93.855469 121.496094 93.703125 C 121.492188 93.695312 121.496094 93.683594 121.496094 93.683594 C 121.296875 93.367188 120.953125 93.179688 120.402344 93.035156 C 119.953125 92.902344 119.558594 92.707031 119.226562 92.472656 C 119.222656 92.46875 119.214844 92.472656 119.210938 92.472656 C 118.722656 92.125 118.371094 91.652344 118.136719 91.085938 C 118.136719 91.082031 118.117188 91.070312 118.117188 91.066406 C 117.878906 90.488281 117.773438 89.808594 117.765625 89.015625 Z M 142.902344 107.296875 C 143.414062 107.273438 143.953125 107.335938 144.484375 107.453125 C 145.007812 107.574219 145.535156 107.753906 145.984375 108 C 146.121094 108.085938 146.160156 108.253906 146.003906 108.308594 C 145.253906 108.511719 144.488281 108.765625 143.71875 109.074219 C 143.335938 109.222656 142.960938 109.390625 142.566406 109.558594 C 140.628906 110.414062 138.65625 111.484375 136.691406 112.472656 C 136.484375 112.558594 136.347656 112.53125 136.257812 112.410156 C 136.226562 112.367188 136.203125 112.320312 136.183594 112.253906 C 136.140625 112.042969 136.148438 111.835938 136.164062 111.628906 C 136.179688 111.429688 136.214844 111.222656 136.222656 111.003906 C 136.242188 110.703125 136.425781 110.683594 136.535156 110.535156 C 136.902344 110.390625 137.214844 110.265625 137.472656 110.148438 C 138.242188 109.792969 138.554688 109.542969 138.816406 109.3125 C 138.996094 109.152344 139.160156 109.011719 139.386719 108.835938 C 139.617188 108.667969 139.921875 108.472656 140.421875 108.234375 C 140.722656 108.097656 141.019531 107.972656 141.316406 107.839844 C 141.613281 107.714844 141.910156 107.589844 142.195312 107.492188 C 142.421875 107.371094 142.683594 107.304688 142.902344 107.296875 Z M 104.796875 107.703125 C 104.835938 107.703125 104.886719 107.714844 104.914062 107.703125 C 105.039062 107.75 105.140625 107.800781 105.230469 107.839844 C 105.316406 107.890625 105.378906 107.941406 105.441406 108 C 105.671875 108.195312 105.765625 108.421875 106.359375 108.703125 C 106.503906 108.773438 106.691406 108.859375 106.90625 108.9375 C 107.121094 109.011719 107.378906 109.085938 107.683594 109.175781 C 108.421875 109.410156 108.949219 109.546875 109.441406 109.734375 C 109.453125 109.742188 109.453125 109.753906 109.46875 109.753906 C 109.953125 109.949219 110.421875 110.1875 111.003906 110.597656 C 111.203125 110.734375 111.414062 110.898438 111.652344 111.085938 C 111.882812 111.273438 112.148438 111.484375 112.433594 111.726562 C 112.550781 111.824219 112.660156 111.886719 112.6875 112.058594 C 112.691406 112.117188 112.6875 112.171875 112.664062 112.234375 L 112.664062 112.253906 C 112.648438 112.316406 112.621094 112.371094 112.589844 112.433594 C 112.515625 112.566406 112.414062 112.679688 112.316406 112.765625 C 112.277344 112.789062 112.246094 112.8125 112.21875 112.824219 C 112.191406 112.828125 112.140625 112.828125 112.078125 112.824219 C 111.890625 112.785156 111.742188 112.761719 111.589844 112.703125 C 111.453125 112.652344 111.335938 112.59375 111.222656 112.53125 C 111.101562 112.46875 111.003906 112.410156 110.910156 112.335938 C 110.816406 112.257812 110.742188 112.179688 110.65625 112.097656 C 110.480469 111.9375 110.296875 111.765625 110.066406 111.589844 C 109.960938 111.503906 109.839844 111.421875 109.695312 111.335938 C 109.554688 111.253906 109.390625 111.167969 109.207031 111.085938 C 109.023438 111.003906 108.875 110.984375 108.722656 111.023438 C 108.671875 111.042969 108.613281 111.054688 108.566406 111.085938 C 108.367188 111.167969 108.179688 111.070312 107.980469 111.023438 C 107.828125 110.992188 107.660156 110.933594 107.492188 110.871094 C 107.484375 110.867188 107.476562 110.871094 107.472656 110.871094 C 106.253906 110.390625 104.738281 109.203125 104.734375 107.785156 C 104.734375 107.761719 104.75 107.738281 104.753906 107.722656 C 104.765625 107.714844 104.777344 107.703125 104.796875 107.703125 Z M 107.390625 121.296875 C 107.714844 121.296875 108.054688 121.316406 108.390625 121.335938 C 108.734375 121.367188 109.085938 121.398438 109.441406 121.453125 C 109.710938 121.496094 109.972656 121.554688 110.25 121.609375 C 110.335938 121.632812 110.421875 121.648438 110.515625 121.671875 C 110.679688 121.710938 110.84375 121.757812 111.003906 121.808594 C 111.214844 121.867188 111.421875 121.929688 111.628906 122.003906 C 111.933594 122.109375 112.230469 122.222656 112.527344 122.351562 C 112.789062 122.464844 113.054688 122.589844 113.308594 122.722656 C 113.566406 122.859375 113.824219 123.019531 114.074219 123.171875 C 114.285156 123.304688 114.492188 123.441406 114.695312 123.585938 C 114.792969 123.648438 114.882812 123.691406 114.972656 123.761719 C 115.121094 123.875 115.273438 123.992188 115.421875 124.109375 C 115.453125 124.132812 115.484375 124.160156 115.515625 124.191406 C 115.539062 124.210938 115.574219 124.230469 115.597656 124.246094 C 115.640625 124.285156 115.691406 124.332031 115.734375 124.367188 C 115.929688 124.535156 116.121094 124.726562 116.316406 124.910156 C 116.566406 125.148438 116.804688 125.390625 117.042969 125.65625 C 117.058594 125.671875 117.078125 125.691406 117.105469 125.710938 C 117.316406 125.953125 117.515625 126.210938 117.726562 126.472656 C 117.847656 126.632812 117.972656 126.796875 118.097656 126.960938 C 118.199219 127.105469 118.289062 127.230469 118.390625 127.375 C 118.609375 127.699219 118.808594 128.035156 119.015625 128.394531 C 119.097656 128.527344 119.160156 128.710938 119.152344 128.859375 C 119.148438 128.910156 119.136719 128.949219 119.109375 129 C 118.917969 129.410156 118.796875 129.828125 118.703125 130.304688 C 118.691406 130.375 118.628906 130.429688 118.566406 130.441406 C 118.542969 130.441406 118.503906 130.4375 118.484375 130.425781 C 118.148438 130.214844 117.835938 130.015625 117.53125 129.796875 C 117.234375 129.585938 116.960938 129.355469 116.691406 129.128906 C 116.6875 129.128906 116.671875 129.136719 116.671875 129.128906 C 116.398438 128.902344 116.148438 128.664062 115.890625 128.429688 C 113.597656 126.3125 111.984375 124.007812 108.898438 123.390625 C 108.890625 123.386719 108.886719 123.390625 108.878906 123.390625 C 107.5 123.117188 105.839844 123.183594 103.683594 123.742188 C 102.96875 123.816406 102.171875 123.816406 101.359375 123.761719 C 100.546875 123.703125 99.722656 123.589844 98.933594 123.449219 C 98.554688 123.378906 98.160156 123.296875 97.804688 123.210938 C 97.796875 123.210938 97.792969 123.21875 97.785156 123.210938 C 97.429688 123.128906 97.097656 123.03125 96.789062 122.941406 C 96.777344 122.933594 96.773438 122.941406 96.765625 122.941406 C 96.132812 122.753906 95.625 122.554688 95.265625 122.375 C 96.878906 122.402344 98.652344 122.386719 100.183594 122.316406 C 101.714844 122.25 102.992188 122.148438 103.601562 122.023438 C 103.808594 121.921875 104.058594 121.835938 104.328125 121.746094 C 104.578125 121.667969 104.867188 121.578125 105.167969 121.515625 C 105.191406 121.507812 105.222656 121.515625 105.246094 121.515625 C 105.515625 121.457031 105.796875 121.410156 106.101562 121.378906 C 106.152344 121.371094 106.191406 121.359375 106.242188 121.359375 C 106.609375 121.324219 106.992188 121.304688 107.390625 121.296875 Z M 141.433594 123.917969 C 140.070312 123.996094 138.578125 124.515625 136.882812 125.984375 C 134.320312 128.503906 132.167969 131.636719 130.515625 134.597656 C 130.320312 134.960938 130.257812 135.289062 130.339844 135.675781 C 132.214844 144.308594 133.019531 148.609375 133.371094 150.890625 L 134.605469 149.871094 C 133.863281 147.792969 133.484375 145.277344 133.738281 142.253906 C 134.628906 139.941406 135.089844 137.210938 135.496094 134.597656 C 136.847656 131.738281 136.984375 130.523438 138.289062 130.597656 C 139.460938 130.660156 140.671875 130.71875 141.765625 130.480469 C 142.191406 130.398438 142.542969 130.226562 142.921875 129.992188 C 144.765625 128.878906 146.339844 127.375 147.683594 125.671875 C 147.847656 125.496094 147.945312 125.125 147.859375 124.953125 C 147.808594 124.824219 147.730469 124.753906 147.566406 124.753906 C 145.625 124.875 143.714844 123.785156 141.433594 123.917969 Z M 140.808594 124.128906 C 141.171875 124.121094 141.546875 124.203125 141.902344 124.347656 C 142.621094 124.628906 143.148438 125.179688 143.429688 125.828125 C 143.570312 126.160156 143.652344 126.503906 143.667969 126.867188 C 143.671875 127.230469 143.609375 127.601562 143.464844 127.960938 C 143.324219 128.316406 143.113281 128.621094 142.859375 128.878906 C 142.097656 129.648438 140.902344 129.929688 139.832031 129.503906 C 139.652344 129.429688 139.484375 129.355469 139.328125 129.246094 C 139.171875 129.148438 139.046875 129.023438 138.914062 128.898438 C 138.148438 128.132812 137.863281 126.960938 138.289062 125.890625 C 138.34375 125.746094 138.40625 125.621094 138.484375 125.496094 C 138.496094 125.484375 138.515625 125.472656 138.527344 125.457031 C 138.558594 125.40625 138.582031 125.355469 138.621094 125.304688 C 138.695312 125.203125 138.777344 125.117188 138.859375 125.027344 L 138.933594 124.953125 C 139.050781 124.835938 139.171875 124.714844 139.3125 124.621094 C 139.414062 124.542969 139.539062 124.484375 139.65625 124.421875 C 139.679688 124.417969 139.695312 124.417969 139.714844 124.40625 C 139.753906 124.394531 139.777344 124.359375 139.816406 124.347656 C 139.96875 124.285156 140.121094 124.242188 140.285156 124.210938 C 140.453125 124.171875 140.636719 124.132812 140.808594 124.128906 Z M 109.640625 124.171875 C 110.003906 124.160156 110.351562 124.222656 110.71875 124.367188 C 110.890625 124.433594 111.066406 124.515625 111.222656 124.621094 C 111.378906 124.722656 111.503906 124.839844 111.628906 124.972656 C 111.765625 125.105469 111.878906 125.230469 111.984375 125.378906 C 112.183594 125.679688 112.335938 126.011719 112.414062 126.363281 C 112.527344 126.878906 112.488281 127.441406 112.277344 127.980469 C 112.203125 128.160156 112.121094 128.308594 112.019531 128.46875 C 112.019531 128.472656 112.03125 128.480469 112.019531 128.484375 C 111.617188 129.097656 110.980469 129.507812 110.285156 129.660156 C 109.933594 129.734375 109.570312 129.742188 109.207031 129.679688 C 109.027344 129.648438 108.839844 129.59375 108.664062 129.523438 C 108.484375 129.445312 108.308594 129.367188 108.15625 129.265625 C 107.847656 129.066406 107.597656 128.800781 107.390625 128.503906 C 106.890625 127.765625 106.746094 126.804688 107.101562 125.910156 C 107.171875 125.734375 107.273438 125.570312 107.375 125.421875 C 107.464844 125.277344 107.554688 125.148438 107.664062 125.027344 C 107.691406 125.003906 107.722656 124.992188 107.746094 124.972656 C 107.867188 124.851562 107.980469 124.726562 108.117188 124.640625 C 108.230469 124.558594 108.347656 124.503906 108.464844 124.441406 C 108.472656 124.441406 108.476562 124.429688 108.484375 124.421875 C 108.597656 124.371094 108.722656 124.347656 108.839844 124.308594 C 108.953125 124.273438 109.070312 124.230469 109.191406 124.210938 L 109.230469 124.210938 C 109.359375 124.183594 109.503906 124.171875 109.640625 124.171875 Z M 100.773438 125.535156 C 100.839844 125.535156 100.914062 125.546875 100.984375 125.558594 C 101 125.558594 101.015625 125.554688 101.027344 125.558594 C 101.152344 125.570312 101.277344 125.617188 101.417969 125.671875 C 101.566406 125.734375 101.722656 125.808594 101.886719 125.910156 C 102.050781 126.011719 102.226562 126.125 102.417969 126.261719 L 102.472656 126.300781 C 102.632812 126.425781 102.796875 126.546875 102.980469 126.691406 C 103.171875 126.84375 103.351562 126.972656 103.566406 127.140625 C 103.957031 127.449219 104.390625 127.785156 104.851562 128.117188 C 105.085938 128.285156 105.320312 128.441406 105.578125 128.605469 C 105.773438 128.726562 105.972656 128.875 106.1875 129 C 106.273438 129.050781 106.367188 129.097656 106.453125 129.148438 C 106.695312 129.285156 106.953125 129.417969 107.214844 129.542969 C 107.472656 129.667969 107.742188 129.78125 108.015625 129.890625 C 108.105469 129.929688 108.183594 129.976562 108.273438 130.011719 C 108.546875 130.113281 108.835938 130.199219 109.128906 130.285156 C 109.480469 130.386719 109.835938 130.484375 110.203125 130.558594 C 110.578125 130.628906 110.960938 130.679688 111.359375 130.707031 C 111.757812 130.746094 112.179688 130.769531 112.609375 130.769531 C 112.691406 130.769531 112.753906 130.792969 112.804688 130.828125 C 112.851562 130.859375 112.890625 130.90625 112.902344 130.984375 C 112.914062 131.660156 112.296875 131.898438 111.628906 131.941406 C 111.234375 131.945312 110.84375 131.933594 110.441406 131.921875 C 109.265625 131.890625 108.097656 131.796875 106.921875 131.609375 C 106.796875 131.597656 106.691406 131.566406 106.570312 131.515625 C 106.460938 131.464844 106.359375 131.398438 106.242188 131.316406 C 105.878906 131.070312 105.496094 130.792969 105.109375 130.480469 C 104.722656 130.164062 104.355469 129.84375 103.996094 129.523438 C 103.628906 129.199219 103.289062 128.898438 102.996094 128.621094 C 102.707031 128.355469 102.480469 128.121094 102.316406 127.960938 C 102.148438 127.8125 102.015625 127.6875 101.902344 127.566406 C 101.796875 127.453125 101.703125 127.339844 101.628906 127.253906 C 101.484375 127.082031 101.421875 126.960938 101.34375 126.847656 C 101.296875 126.792969 101.253906 126.742188 101.203125 126.691406 C 101.046875 126.527344 100.796875 126.351562 100.230469 126.046875 C 100.160156 126.015625 100.117188 125.992188 100.109375 125.949219 C 100.105469 125.921875 100.105469 125.902344 100.128906 125.871094 C 100.148438 125.84375 100.167969 125.804688 100.203125 125.773438 C 100.265625 125.722656 100.34375 125.683594 100.402344 125.65625 C 100.460938 125.621094 100.515625 125.59375 100.578125 125.578125 C 100.640625 125.558594 100.703125 125.542969 100.773438 125.535156 Z M 100.773438 125.535156 "/>
</g>
</svg>
